<svg width="64" height="64" viewBox="0 0 64 64" fill="none" xmlns="http://www.w3.org/2000/svg">
<path d="M17.6001 9.6001C15.4784 9.6001 13.4435 10.443 11.9432 11.9432C10.443 13.4435 9.6001 15.4784 9.6001 17.6001V46.4001C9.6001 48.5218 10.443 50.5567 11.9432 52.057C13.4435 53.5572 15.4784 54.4001 17.6001 54.4001H30.7201C30.1968 53.3773 29.7756 52.3055 29.4625 51.2001H17.6001C16.3271 51.2001 15.1062 50.6944 14.206 49.7942C13.3058 48.894 12.8001 47.6731 12.8001 46.4001V17.6001C12.8001 16.3271 13.3058 15.1062 14.206 14.206C15.1062 13.3058 16.3271 12.8001 17.6001 12.8001H46.4001C47.6731 12.8001 48.894 13.3058 49.7942 14.206C50.6944 15.1062 51.2001 16.3271 51.2001 17.6001V29.4625C52.3169 29.7793 53.3857 30.1985 54.4001 30.7201V17.6001C54.4001 15.4784 53.5572 13.4435 52.057 11.9432C50.5567 10.443 48.5218 9.6001 46.4001 9.6001H17.6001ZM29.4625 41.6001C29.7793 40.4833 30.1985 39.4145 30.7201 38.4001H17.6001C17.1758 38.4001 16.7688 38.5687 16.4687 38.8687C16.1687 39.1688 16.0001 39.5758 16.0001 40.0001C16.0001 40.4244 16.1687 40.8314 16.4687 41.1315C16.7688 41.4315 17.1758 41.6001 17.6001 41.6001H29.4625ZM27.2001 48.0001C27.6244 48.0001 28.0314 47.8315 28.3315 47.5315C28.6315 47.2314 28.8001 46.8244 28.8001 46.4001C28.8001 45.9757 28.6315 45.5688 28.3315 45.2687C28.0314 44.9687 27.6244 44.8001 27.2001 44.8001H17.6001C17.1758 44.8001 16.7688 44.9687 16.4687 45.2687C16.1687 45.5688 16.0001 45.9757 16.0001 46.4001C16.0001 46.8244 16.1687 47.2314 16.4687 47.5315C16.7688 47.8315 17.1758 48.0001 17.6001 48.0001H27.2001ZM25.6001 16.0001C25.9097 16.0001 26.2126 16.0898 26.4722 16.2585C26.7318 16.4272 26.9368 16.6676 27.0625 16.9505L33.4625 31.3505C33.5478 31.5425 33.5944 31.7495 33.5998 31.9596C33.6051 32.1697 33.569 32.3787 33.4935 32.5748C33.418 32.771 33.3047 32.9503 33.1599 33.1026C33.0151 33.2549 32.8417 33.3772 32.6497 33.4625C32.4577 33.5478 32.2507 33.5944 32.0406 33.5998C31.8305 33.6051 31.6215 33.569 31.4254 33.4935C31.2292 33.418 31.0499 33.3047 30.8976 33.1599C30.7453 33.0151 30.623 32.8417 30.5377 32.6497L28.8257 28.8001H22.3745L20.6625 32.6497C20.4902 33.0375 20.1709 33.3411 19.7748 33.4935C19.3788 33.6459 18.9383 33.6348 18.5505 33.4625C18.1626 33.2902 17.8591 32.9709 17.7067 32.5748C17.5543 32.1788 17.5654 31.7383 17.7377 31.3505L24.1377 16.9505C24.2634 16.6676 24.4684 16.4272 24.728 16.2585C24.9876 16.0898 25.2905 16.0001 25.6001 16.0001ZM27.4049 25.6001L25.6001 21.5393L23.7953 25.6001H27.4049ZM43.2001 17.6001C43.2001 17.1758 43.0315 16.7688 42.7315 16.4687C42.4314 16.1687 42.0244 16.0001 41.6001 16.0001C41.1758 16.0001 40.7688 16.1687 40.4687 16.4687C40.1687 16.7688 40.0001 17.1758 40.0001 17.6001V20.8001H36.8001C36.3758 20.8001 35.9688 20.9687 35.6687 21.2687C35.3687 21.5688 35.2001 21.9758 35.2001 22.4001C35.2001 22.8244 35.3687 23.2314 35.6687 23.5315C35.9688 23.8315 36.3758 24.0001 36.8001 24.0001H40.0001V27.2001C40.0001 27.6244 40.1687 28.0314 40.4687 28.3315C40.7688 28.6315 41.1758 28.8001 41.6001 28.8001C42.0244 28.8001 42.4314 28.6315 42.7315 28.3315C43.0315 28.0314 43.2001 27.6244 43.2001 27.2001V24.0001H46.4001C46.8244 24.0001 47.2314 23.8315 47.5315 23.5315C47.8315 23.2314 48.0001 22.8244 48.0001 22.4001C48.0001 21.9758 47.8315 21.5688 47.5315 21.2687C47.2314 20.9687 46.8244 20.8001 46.4001 20.8001H43.2001V17.6001ZM60.8001 46.4001C60.8001 50.2192 59.283 53.8819 56.5824 56.5824C53.8819 59.283 50.2192 60.8001 46.4001 60.8001C42.581 60.8001 38.9183 59.283 36.2178 56.5824C33.5172 53.8819 32.0001 50.2192 32.0001 46.4001C32.0001 42.581 33.5172 38.9183 36.2178 36.2178C38.9183 33.5172 42.581 32.0001 46.4001 32.0001C50.2192 32.0001 53.8819 33.5172 56.5824 36.2178C59.283 38.9183 60.8001 42.581 60.8001 46.4001ZM48.0001 40.0001C48.0001 39.5758 47.8315 39.1688 47.5315 38.8687C47.2314 38.5687 46.8244 38.4001 46.4001 38.4001C45.9757 38.4001 45.5688 38.5687 45.2687 38.8687C44.9687 39.1688 44.8001 39.5758 44.8001 40.0001V44.8001H40.0001C39.5758 44.8001 39.1688 44.9687 38.8687 45.2687C38.5687 45.5688 38.4001 45.9757 38.4001 46.4001C38.4001 46.8244 38.5687 47.2314 38.8687 47.5315C39.1688 47.8315 39.5758 48.0001 40.0001 48.0001H44.8001V52.8001C44.8001 53.2244 44.9687 53.6314 45.2687 53.9315C45.5688 54.2315 45.9757 54.4001 46.4001 54.4001C46.8244 54.4001 47.2314 54.2315 47.5315 53.9315C47.8315 53.6314 48.0001 53.2244 48.0001 52.8001V48.0001H52.8001C53.2244 48.0001 53.6314 47.8315 53.9315 47.5315C54.2315 47.2314 54.4001 46.8244 54.4001 46.4001C54.4001 45.9757 54.2315 45.5688 53.9315 45.2687C53.6314 44.9687 53.2244 44.8001 52.8001 44.8001H48.0001V40.0001Z" fill="#007382"/>
</svg>
