<svg width="35" height="35" viewBox="0 0 35 35" fill="none" xmlns="http://www.w3.org/2000/svg">
<circle opacity="0.1" cx="17.5" cy="17.4999" r="17.5" fill="white"/>
<path d="M17.5059 13.6552C15.3764 13.6552 13.6588 15.3729 13.6588 17.5023C13.6588 19.6318 15.3764 21.3494 17.5059 21.3494C19.6353 21.3494 21.3529 19.6318 21.3529 17.5023C21.3529 15.3729 19.6353 13.6552 17.5059 13.6552ZM17.5059 20.0035C16.1297 20.0035 15.0047 18.8818 15.0047 17.5023C15.0047 16.1229 16.1264 15.0012 17.5059 15.0012C18.8853 15.0012 20.007 16.1229 20.007 17.5023C20.007 18.8818 18.882 20.0035 17.5059 20.0035ZM22.4076 13.4979C22.4076 13.9968 22.0058 14.3952 21.5103 14.3952C21.0114 14.3952 20.613 13.9934 20.613 13.4979C20.613 13.0023 21.0148 12.6006 21.5103 12.6006C22.0058 12.6006 22.4076 13.0023 22.4076 13.4979ZM24.9556 14.4086C24.8987 13.2066 24.6241 12.1419 23.7436 11.2646C22.8663 10.3874 21.8016 10.1128 20.5996 10.0526C19.3608 9.98225 15.6476 9.98225 14.4088 10.0526C13.2101 10.1095 12.1454 10.384 11.2648 11.2613C10.3842 12.1385 10.113 13.2032 10.0527 14.4052C9.98242 15.6441 9.98242 19.3573 10.0527 20.5961C10.1097 21.7981 10.3842 22.8628 11.2648 23.7401C12.1454 24.6173 13.2067 24.8919 14.4088 24.9521C15.6476 25.0224 19.3608 25.0224 20.5996 24.9521C21.8016 24.8952 22.8663 24.6206 23.7436 23.7401C24.6208 22.8628 24.8954 21.7981 24.9556 20.5961C25.0259 19.3573 25.0259 15.6474 24.9556 14.4086ZM23.3552 21.9253C23.094 22.5816 22.5884 23.0872 21.9288 23.3517C20.9411 23.7434 18.5974 23.653 17.5059 23.653C16.4143 23.653 14.0672 23.7401 13.0829 23.3517C12.4266 23.0905 11.921 22.5849 11.6565 21.9253C11.2648 20.9376 11.3552 18.5939 11.3552 17.5023C11.3552 16.4108 11.2681 14.0637 11.6565 13.0794C11.9177 12.4231 12.4233 11.9175 13.0829 11.653C14.0706 11.2613 16.4143 11.3517 17.5059 11.3517C18.5974 11.3517 20.9445 11.2646 21.9288 11.653C22.5851 11.9142 23.0907 12.4198 23.3552 13.0794C23.7469 14.0671 23.6565 16.4108 23.6565 17.5023C23.6565 18.5939 23.7469 20.941 23.3552 21.9253Z" fill="white"/>
</svg>
