<svg width="300" height="197" viewBox="0 0 300 197" fill="none" xmlns="http://www.w3.org/2000/svg">
<g clip-path="url(#clip0_304_1754)">
<path d="M215.93 109.86C207.597 108.267 206.127 106.97 204.318 99.6235C202.511 106.97 201.041 108.267 192.706 109.86C201.041 111.452 202.511 112.749 204.318 120.093C206.157 112.749 207.597 111.452 215.93 109.86Z" fill="#00CDBE"/>
<path d="M137.389 77.1001V113.441" stroke="#E6F0F0" stroke-width="3"/>
<path d="M148.838 83.157V113.441" stroke="#E6F0F0" stroke-width="3"/>
<path d="M100.752 101.327V113.441" stroke="#E6F0F0" stroke-width="3"/>
<path d="M160.576 93.7302L160.287 113.441" stroke="#E6F0F0" stroke-width="3"/>
<path d="M112.201 93.2517V113.441" stroke="#E6F0F0" stroke-width="3"/>
<path d="M171.736 103.346V113.441" stroke="#E6F0F0" stroke-width="3"/>
<path d="M125.94 83.157V113.441" stroke="#E6F0F0" stroke-width="3"/>
<path d="M144.865 51.7483C139.076 52.8506 138.068 53.7591 136.818 58.8427C135.568 53.7389 134.537 52.8506 128.77 51.7483C134.559 50.6459 135.568 49.7374 136.818 44.6558C138.089 49.7374 139.098 50.6459 144.865 51.7483Z" fill="#E6F0F0"/>
<path d="M136.818 76.5853L179.753 38.7405V114.412L136.818 76.5853Z" fill="#007382"/>
<path d="M91.5926 0.380859H0V81.025H91.5926V0.380859Z" fill="#96D2F5"/>
<path d="M91.5926 40.7029L45.7963 81.0249H91.5926V40.7029Z" fill="#007382"/>
<path d="M45.7963 81.0249L0 40.7029V81.0249H45.7963Z" fill="#E6F0F0"/>
<path d="M91.5926 40.7029H0L45.7963 81.0249L91.5926 40.7029Z" fill="#FE736C"/>
<path d="M137.389 77.0902L96.1722 113.441V40.7595L137.389 77.0902Z" fill="#FE736C"/>
<path d="M44.6514 154.173V194.116" stroke="#E6F0F0" stroke-width="3"/>
<path d="M55.8152 162.162V196.574" stroke="#E6F0F0" stroke-width="3"/>
<path d="M11.1639 181.826V194.116" stroke="#E6F0F0" stroke-width="3"/>
<path d="M66.9767 172.608V194.116" stroke="#E6F0F0" stroke-width="3"/>
<path d="M22.3257 172.301V194.116" stroke="#E6F0F0" stroke-width="3"/>
<path d="M78.141 182.133V194.115" stroke="#E6F0F0" stroke-width="3"/>
<path d="M33.4895 163.084V194.115" stroke="#E6F0F0" stroke-width="3"/>
<path d="M44.6516 154.789L0 194.115V115.46L44.6516 154.789Z" fill="#FE736C"/>
<path d="M53.0232 128.979C47.0129 130.127 45.9557 131.058 44.6509 136.352C43.3462 131.058 42.289 130.127 36.2787 128.979C42.289 127.83 43.3462 126.899 44.6509 121.605C45.9557 126.899 47.0129 127.83 53.0232 128.979Z" fill="#E6F0F0"/>
<path d="M44.6514 154.789L89.3027 115.46V194.115L44.6514 154.789Z" fill="#4B96DC"/>
<path d="M100.752 154.157C100.752 143.935 110.149 135.649 121.742 135.649H151.128V161.558C151.128 171.78 141.73 180.066 130.138 180.066H100.752V154.157Z" fill="#4B96DC"/>
<path d="M109.148 156.933C109.148 149.267 116.196 143.053 124.89 143.053H142.732V158.782C142.732 166.448 135.684 172.662 126.989 172.662H109.148V156.933Z" fill="#96D2F5"/>
<path d="M176.316 134.569H243.964V194.198H234.312C202.296 194.198 176.316 171.324 176.316 143.077V134.569Z" fill="#4B96DC"/>
<path d="M45.7963 0.380859L91.5926 40.7029V0.380859H45.7963Z" fill="#E6F0F0"/>
<path d="M45.7963 0.380859L0 40.7029V0.380859H45.7963Z" fill="#007382"/>
<path d="M45.7963 57.0843C56.0714 57.0843 64.4012 49.7495 64.4012 40.7027C64.4012 31.6558 56.0714 24.321 45.7963 24.321C35.5212 24.321 27.1915 31.6558 27.1915 40.7027C27.1915 49.7495 35.5212 57.0843 45.7963 57.0843Z" fill="#007382"/>
<path d="M54.3831 40.703C48.2189 41.88 47.1344 42.837 45.7963 48.2639C44.4581 42.837 43.3737 41.88 37.2095 40.703C43.3737 39.5239 44.4581 38.569 45.7963 33.1421C47.1344 38.569 48.2189 39.5239 54.3831 40.703Z" fill="#E6F0F0"/>
<path d="M232.352 85.176H242.004C274.02 85.176 300 108.05 300 136.297V144.805H232.352V85.176Z" fill="#E6F0F0"/>
</g>
<defs>
<clipPath id="clip0_304_1754">
<rect width="300" height="196.194" fill="white" transform="translate(0 0.380859)"/>
</clipPath>
</defs>
</svg>
