<svg width="128" height="128" viewBox="0 0 128 128" fill="none" xmlns="http://www.w3.org/2000/svg">
<rect width="128" height="128" rx="64" fill="white"/>
<g clip-path="url(#clip0_306_1786)">
<path fill-rule="evenodd" clip-rule="evenodd" d="M37.9595 24.0938C36.5339 24.4577 35.2581 25.5029 34.6007 26.8454C34.2407 27.5806 34.2148 27.8126 34.161 30.777L34.104 33.9274L30.9535 33.9844C27.9892 34.0382 27.7571 34.0642 27.022 34.4242C26.0287 34.9106 25.091 35.8465 24.5963 36.8454C24.2257 37.594 24.2095 37.7509 24.2095 40.5954C24.2095 43.5254 24.2151 43.5757 24.6438 44.4487C25.1209 45.4199 25.9415 46.2473 26.9759 46.7996C27.6026 47.1342 27.8607 47.1612 30.8777 47.2082L34.1085 47.2584L34.159 50.4113C34.2084 53.494 34.2192 53.5838 34.6439 54.4487C35.1209 55.4199 35.9415 56.2473 36.9759 56.7996C37.6113 57.1388 37.8131 57.1579 40.772 57.1579C43.7512 57.1579 43.9298 57.1407 44.6001 56.7898C45.5587 56.2879 46.4199 55.4376 46.9175 54.5016C47.3185 53.7473 47.3356 53.6102 47.4118 50.5173L47.4907 47.3142L50.6939 47.2356C53.6706 47.1624 53.9467 47.1309 54.6001 46.7893C55.5576 46.2887 56.4193 45.4384 56.9182 44.5016C57.3292 43.7304 57.3345 43.6802 57.3345 40.5954C57.3345 37.6365 57.3154 37.4348 56.9762 36.7993C56.4239 35.7649 55.5965 34.9443 54.6253 34.4673C53.7604 34.0426 53.6706 34.0318 50.5879 33.9824L47.4349 33.932L47.3848 30.7012C47.3377 27.6841 47.3107 27.426 46.9762 26.7993C46.4239 25.7649 45.5965 24.9443 44.6253 24.4673C43.7731 24.0488 43.6437 24.0318 41.0845 24.0035C39.6235 23.9874 38.2173 24.0281 37.9595 24.0938ZM43.1104 27.4581C44.0631 27.8562 44.1313 28.1815 44.1313 32.3213C44.1313 36.329 44.1995 36.6909 45.0239 37.0665C45.257 37.1727 46.7379 37.236 48.9875 37.236C54.1362 37.236 54.1313 37.2327 54.1313 40.7415V42.856L53.6757 43.3663L53.2203 43.8766L49.1477 43.9548L45.0753 44.0329L44.6423 44.4657L44.2095 44.8987L44.1313 48.9712L44.0532 53.0437L43.5429 53.4992L43.0326 53.9548H40.9181C37.4093 53.9548 37.4126 53.9596 37.4126 48.8109C37.4126 46.5613 37.3493 45.0804 37.2431 44.8473C36.8675 44.0229 36.5056 43.9548 32.4979 43.9548C28.3581 43.9548 28.0327 43.8865 27.6346 42.9338C27.3128 42.1632 27.3295 38.9427 27.659 38.2482C28.1031 37.3126 28.4863 37.236 32.7217 37.236H36.4992L36.9559 36.7793L37.4126 36.3226V32.5451C37.4126 28.3359 37.4906 27.9366 38.4003 27.4881C39.0692 27.1582 42.3427 27.1373 43.1104 27.4581ZM73.5325 34.1943C70.6997 34.8093 68.1217 36.8987 66.7913 39.6579C66.0629 41.1684 65.8181 42.2968 65.8309 44.0879C65.8521 47.1398 67.1737 49.8323 69.6097 51.7873C71.5517 53.3457 73.7477 54.0399 76.3189 53.908C79.5533 53.7423 82.3229 52.1752 84.1133 49.4987C85.3005 47.7235 85.7485 46.2044 85.7485 43.9548C85.7485 42.4215 85.6865 41.9696 85.3257 40.8743C83.7061 35.9613 78.6325 33.0874 73.5325 34.1943ZM77.9325 37.6954C79.6621 38.2906 81.0157 39.5304 81.8441 41.2793C82.2969 42.2349 82.3345 42.4398 82.3345 43.9548C82.3345 45.4726 82.2973 45.6735 81.8401 46.6392C80.9993 48.4132 79.5565 49.6979 77.7481 50.2827C76.4041 50.7173 74.3477 50.5656 72.9949 49.9321C70.3261 48.6826 68.7529 45.7162 69.2697 42.9099C69.7473 40.3199 71.4293 38.3938 73.8969 37.6113C74.8793 37.2998 76.9049 37.342 77.9325 37.6954ZM69.2785 57.397C66.3801 57.7362 63.1984 59.622 61.414 62.0582C60.7303 62.9916 59.9642 64.506 59.6637 65.5176C59.3901 66.4388 59.6862 66.45 56.8657 65.4096C54.6063 64.576 53.7148 64.506 52.6082 65.0756C52.1737 65.2992 51.6746 65.732 51.3984 66.1248L50.9282 66.7932L50.882 70.8056L50.8357 74.818L50.2848 75.1952C48.3042 76.5524 47.1542 79.2696 47.5639 81.6244C47.8393 83.2068 48.5084 84.4076 49.761 85.5676L50.8501 86.576V90.076C50.8501 93.3976 50.8681 93.6112 51.2017 94.264C51.3951 94.6424 51.7993 95.1432 52.1001 95.3768C52.4715 95.6652 56.3131 97.11 64.0705 99.8784C70.3537 102.12 75.6269 103.955 75.7893 103.956C75.9517 103.957 81.2525 102.113 87.5689 99.8588C98.1725 96.0744 99.1041 95.7132 99.7173 95.1504C100.724 94.2252 100.85 93.6124 100.85 89.6504V86.34L101.468 85.9308C101.809 85.706 102.376 85.1384 102.729 84.6704C104.867 81.8388 104.498 78.12 101.838 75.6824L100.85 74.7776V71.3104C100.85 69.3292 100.777 67.5536 100.68 67.168C100.466 66.3204 99.7573 65.4476 98.9445 65.0328C97.9193 64.51 97.0121 64.6068 94.5009 65.5068C93.2865 65.9424 92.2549 66.2984 92.2085 66.2984C92.1625 66.2984 92.0785 66.07 92.0213 65.7908C91.8209 64.806 90.5613 62.4646 89.6493 61.3806C87.8909 59.291 85.0153 57.7474 82.2293 57.3982C80.7661 57.2146 70.8445 57.2138 69.2785 57.397ZM82.9649 60.9159C84.8565 61.4087 86.7045 62.7732 87.8009 64.4876C88.3021 65.2712 89.1025 67.3228 88.9589 67.4556C88.8053 67.5984 76.0757 72.0796 75.8253 72.0796C75.5745 72.0796 63.0534 67.6732 62.7217 67.4684C62.6481 67.4228 62.6956 67.018 62.8275 66.5684C63.5745 64.024 65.5885 61.9679 68.2093 61.0752L69.3657 60.6815L75.7001 60.6776C80.9289 60.6742 82.1969 60.7159 82.9649 60.9159ZM64.3265 71.6272L74.1313 75.1264V87.5224C74.1313 95.0764 74.0749 99.898 73.9865 99.866C73.9065 99.8376 69.4069 98.232 63.987 96.2984L54.1326 92.7828L54.132 90.0212L54.1313 87.2592L56.3842 87.2084C58.6062 87.1584 58.6463 87.1512 59.3139 86.6824C59.6862 86.4204 60.1665 85.8932 60.3813 85.5104C60.7618 84.8324 60.7734 84.7196 60.8237 81.1796C60.8562 78.8852 60.8107 77.2436 60.7001 76.7268C60.4592 75.6008 59.8809 74.826 58.9268 74.3504C58.2012 73.9888 57.9596 73.9548 56.132 73.9548H54.1313V70.9692C54.1313 68.6468 54.1746 68 54.3267 68.056C54.4342 68.0956 58.9342 69.7028 64.3265 71.6272ZM97.4125 70.986V73.9548L95.5765 73.9556C93.3821 73.9568 92.7421 74.1112 91.9421 74.8344C90.8885 75.7864 90.8293 76.126 90.8817 80.9108L90.9281 85.1268L91.3433 85.7272C91.5717 86.0576 92.0285 86.5148 92.3589 86.7428C92.9293 87.1368 93.0717 87.1604 95.1861 87.2084L97.4125 87.2592V90.0312V92.8036L89.2485 95.7196C84.7581 97.3232 80.2937 98.9172 79.3265 99.2612L77.5689 99.8872V87.4908V75.0948L84.4829 72.6368C88.2857 71.2852 91.9593 69.972 92.6469 69.7184C96.2561 68.3868 97.1885 68.0488 97.2953 68.0336C97.3601 68.0248 97.4125 69.3532 97.4125 70.986ZM57.4126 80.5952V83.9548H55.5573C53.4834 83.9548 52.6213 83.742 51.8927 83.0504C50.8601 82.07 50.5517 80.4756 51.1454 79.1892C51.8104 77.7484 52.9367 77.254 55.5767 77.2432L57.4126 77.236V80.5952ZM98.3157 77.4196C99.3501 77.68 100.426 78.778 100.679 79.83C101.047 81.366 100.362 82.844 98.9549 83.5448C98.1961 83.9232 97.9777 83.9548 96.1321 83.9548H94.1313V80.5952V77.236H95.8589C96.8093 77.236 97.9149 77.3188 98.3157 77.4196Z" fill="#FF736E"/>
</g>
<defs>
<clipPath id="clip0_306_1786">
<rect width="80" height="80" fill="white" transform="translate(24 24)"/>
</clipPath>
</defs>
</svg>
