<svg width="128" height="128" viewBox="0 0 128 128" fill="none" xmlns="http://www.w3.org/2000/svg">
<rect width="128" height="128" rx="64" fill="#E6F0F0"/>
<g clip-path="url(#clip0_306_1823)">
<path fill-rule="evenodd" clip-rule="evenodd" d="M31.8205 24.1694C30.4197 24.5495 29.0072 25.7828 28.3439 27.2047L28 27.9422V63.9578V99.9736L28.4319 100.852C28.9412 101.889 30.1358 103.062 31.1692 103.539L31.9063 103.88H51.9063H71.9063L72.6751 103.525C73.8475 102.984 74.6843 102.21 75.2759 101.119L75.8123 100.13V63.9578V27.786L75.2759 26.7963C74.6843 25.7053 73.8475 24.9313 72.6751 24.3905L71.9063 24.036L52.2187 24.0063C37.0092 23.9833 32.3695 24.0203 31.8205 24.1694ZM40.0714 28.7906C41.6747 30.4753 42.3456 31.0667 43.0401 31.4078L43.9375 31.8484H51.9844H60.0313L60.9358 31.4042C61.6603 31.0484 62.2356 30.5292 63.8264 28.7953L65.8125 26.6303L68.4583 26.6222C71.5883 26.6125 72.1755 26.788 72.8459 27.9319L73.2343 28.5947V60.5886C73.2343 96.2192 73.3303 93.1988 72.1699 94.0836L71.6183 94.5048L52.0916 94.5456L32.5649 94.5864L31.8991 94.1964C31.4541 93.9356 31.1245 93.5816 30.9056 93.1292L30.5781 92.4528V60.7434C30.5781 40.4958 30.6334 28.8408 30.7313 28.4999C30.9147 27.8605 31.5733 27.1236 32.2187 26.8355C32.5487 26.6883 33.4736 26.6245 35.3437 26.6203L38 26.6142L40.0714 28.7906ZM61.2827 27.5906C59.6522 29.3763 60.2406 29.2703 51.952 29.2703C45.6816 29.2703 44.7186 29.2389 44.2813 29.0196C43.7699 28.763 41.8281 26.9555 41.8281 26.7358C41.8281 26.6688 46.4059 26.6141 52.0013 26.6141H62.1742L61.2827 27.5906ZM58.1339 40.0503C57.3189 40.3792 57.0611 41.4284 57.6208 42.1399C57.937 42.542 57.9863 42.5516 59.7431 42.5516C60.765 42.5516 61.5192 42.6133 61.4895 42.6946C61.4609 42.7733 55.4609 47.985 48.1563 54.2763C39.8067 61.4672 34.802 65.8824 34.6784 66.1664C34.38 66.8524 34.7469 67.6156 35.4936 67.862C36.0106 68.0328 36.1186 68.0144 36.6416 67.6672C37.2719 67.2492 41.4494 63.6697 54.9531 51.977L63.7813 44.3328L63.8711 45.6688C63.9758 47.2249 64.1425 47.6125 64.8069 47.8442C65.5919 48.1178 66.2967 47.7397 66.5153 46.9275C66.7292 46.1331 66.5755 41.0808 66.3216 40.5594C66.2231 40.3572 65.9127 40.1419 65.5908 40.0525C64.9092 39.8632 58.6022 39.8613 58.1339 40.0503ZM87.3879 53.5058C85.8387 53.7317 84.6167 54.0908 83.4411 54.6655C82.1875 55.2782 81.6023 55.8686 81.3611 56.7632C81.2515 57.1708 81.2123 64.3832 81.2399 78.994L81.2811 100.622L81.6503 101.16C82.7287 102.734 85.6343 103.734 89.6407 103.91C94.4847 104.123 98.6691 102.894 99.6511 100.969C99.9455 100.392 99.9531 99.8216 99.9531 78.636C99.9531 54.8163 100.015 56.397 99.0475 55.4747C98.1227 54.5928 96.0823 53.8484 93.6251 53.496C92.3263 53.3097 88.6935 53.3153 87.3879 53.5058ZM60.3437 54.8175C59.575 55.0892 58.9325 55.7788 58.7136 56.5667C58.6031 56.9646 58.5483 62.0299 58.5478 71.8876L58.5469 86.614H57.2187H55.8906V75.6868C55.8906 68.326 55.8363 64.6156 55.7239 64.3196C55.6323 64.0776 55.4037 63.7148 55.2161 63.5133C54.5545 62.8028 54.0422 62.653 52.0289 62.5817C48.8139 62.468 47.8449 62.7322 47.0272 63.9456L46.6719 64.4728V75.5436V86.614H45.2656H43.8594V80.2704C43.8594 73.1284 43.8675 73.184 42.7133 72.4204C42.0909 72.0088 42.0569 72.0048 39.2611 72.0048C36.6233 72.0048 36.4011 72.0272 35.8847 72.3488C35.5806 72.5376 35.1763 72.9692 34.9863 73.3072C34.6453 73.9136 34.6406 74.0092 34.6406 80.268C34.6406 85.9424 34.6145 86.614 34.3942 86.614C33.9927 86.614 33.2344 87.4824 33.2344 87.9424C33.2344 88.1924 33.4158 88.5384 33.6911 88.8136L34.1478 89.2704H51.9795H69.8111L70.1947 88.8868C70.4503 88.6312 70.5763 88.3316 70.5731 87.9884C70.5643 87.0628 69.9571 86.614 68.7135 86.614H67.9219V71.7024C67.9219 61.5196 67.8691 56.6511 67.7551 56.3508C67.5183 55.7253 67.0044 55.2119 66.2813 54.8782C65.7603 54.6377 65.2663 54.5903 63.3125 54.5931C61.6991 54.5955 60.7741 54.6653 60.3437 54.8175ZM94.9831 56.4344C95.6439 56.6096 96.4175 56.8742 96.7019 57.0225L97.2187 57.2922L96.4375 57.646C93.7319 58.8714 87.6451 58.8952 84.8363 57.6913C84.2795 57.4527 84.1727 57.3483 84.3123 57.1798C84.5303 56.917 85.8475 56.4958 87.3383 56.212C89.0315 55.8896 93.4083 56.0169 94.9831 56.4344ZM65.2656 71.9264V86.614H63.2344H61.2031V72.0308C61.2031 64.01 61.25 57.4005 61.3073 57.3433C61.3645 57.286 62.2786 57.2391 63.3386 57.2391H65.2656V71.9264ZM87.6955 61.0648C90.4231 61.4698 93.0675 61.3225 95.8827 60.6088L97.2967 60.25V61.4094V62.5689L96.4495 62.9567C94.9195 63.6572 93.5687 63.8647 90.5783 63.8586C88.5959 63.8546 87.5259 63.7808 86.6887 63.5905C85.4203 63.3019 84.1719 62.8017 83.9843 62.5064C83.8495 62.2946 83.8135 60.462 83.9415 60.3341C83.9867 60.2889 84.4911 60.3816 85.0623 60.54C85.6335 60.6984 86.8183 60.9346 87.6955 61.0648ZM53.2344 75.9892V86.614H51.2813H49.3281V75.9892V65.364H51.2813H53.2344V75.9892ZM97.2295 67.8136C97.1155 68.112 96.0139 68.5592 94.5483 68.9028C93.5851 69.1284 92.7095 69.1908 90.5783 69.186C87.5931 69.1788 86.2275 68.9656 84.7067 68.2692L83.8595 67.8816V66.7612V65.6412L84.2891 65.7224C84.5255 65.7672 85.3867 65.9532 86.2031 66.1356C89.1555 66.7952 92.7239 66.7268 95.8123 65.9516L97.2187 65.5984L97.2655 66.5988C97.2911 67.1488 97.2751 67.6956 97.2295 67.8136ZM85.3959 71.2928C88.3759 72.048 92.3907 72.1116 95.1875 71.448C95.9611 71.2644 96.7551 71.0772 96.9523 71.032C97.3047 70.9516 97.3103 70.9712 97.2651 72.0944C97.2207 73.1884 97.1975 73.2508 96.7355 73.52C96.4695 73.6752 95.6959 73.954 95.0167 74.1396C93.9587 74.4288 93.3439 74.4792 90.7343 74.4908C87.4567 74.5056 86.1071 74.3076 84.6407 73.596L83.9375 73.2548L83.8915 72.122C83.8607 71.3584 83.9031 70.9892 84.0219 70.9892C84.1187 70.9892 84.7371 71.1256 85.3959 71.2928ZM41.2031 80.5984V86.614H39.25H37.2969V80.5984V74.5828H39.25H41.2031V80.5984ZM85.9687 76.7652C88.7659 77.438 92.8715 77.3712 95.9167 76.6036C96.5755 76.4376 97.1555 76.3016 97.2059 76.3016C97.2559 76.3016 97.2967 76.7924 97.2967 77.3916C97.2967 78.3928 97.2639 78.5036 96.8911 78.7476C96.6683 78.8936 95.9123 79.1856 95.2115 79.396C94.1351 79.7192 93.5139 79.7896 91.2031 79.8516C88.8671 79.9144 88.2447 79.8788 86.9303 79.6072C86.0847 79.4324 85.0651 79.1268 84.6647 78.928L83.9375 78.5672L83.8911 77.4148C83.8459 76.2836 83.8515 76.264 84.2039 76.3444C84.4011 76.39 85.1955 76.5792 85.9687 76.7652ZM85.2175 81.9204C88.6855 82.8428 93.2511 82.7484 96.9523 81.6776C97.3063 81.5752 97.3107 81.5896 97.2651 82.7244L97.2187 83.8748L96.5531 84.2412C95.4459 84.8512 93.3027 85.2088 90.7039 85.2172C87.7415 85.2268 85.5695 84.8492 84.3671 84.116C83.8719 83.814 83.8595 83.7788 83.8595 82.71C83.8595 82.1072 83.9119 81.6156 83.9767 81.618C84.0411 81.6196 84.5995 81.756 85.2175 81.9204ZM85.4415 87.3064C89.0459 88.2208 93.4287 88.1008 97.0235 86.99C97.2671 86.9148 97.2967 87.0332 97.2967 88.074V89.2424L96.6327 89.5624C93.7495 90.9508 87.0591 90.9316 84.5519 89.5276L83.9375 89.1836L83.8915 88.0552C83.8663 87.4344 83.8679 86.9264 83.8951 86.9264C83.9223 86.9264 84.6183 87.0976 85.4415 87.3064ZM84.7295 92.4644C87.0719 93.1496 90.2547 93.44 92.6095 93.1832C94.0987 93.0212 96.3307 92.5804 97.0235 92.3116C97.2691 92.2164 97.2967 92.3264 97.2967 93.4028V94.6L96.4767 94.9716C93.9419 96.1188 88.7143 96.2716 85.6211 95.2892C83.9979 94.774 83.8595 94.6184 83.8595 93.3088C83.8595 92.7204 83.8819 92.2392 83.9091 92.2392C83.9367 92.2392 84.3055 92.3404 84.7295 92.4644ZM31.6719 97.0188C32.1145 97.186 35.9717 97.2252 51.9063 97.2252C71.9655 97.2252 71.6983 97.232 72.9611 96.6964C73.2095 96.5912 73.2343 96.706 73.2343 97.9508C73.2343 99.6544 72.8483 100.457 71.7811 100.974C71.1055 101.301 71.0779 101.302 51.9451 101.302C38.8147 101.302 32.6475 101.249 32.3461 101.136C31.6919 100.889 30.9083 100.062 30.7337 99.4336C30.6491 99.1288 30.5795 98.3624 30.5791 97.73C30.5783 96.6952 30.6053 96.5924 30.8516 96.6964C31.0019 96.7604 31.3711 96.9056 31.6719 97.0188ZM88.7423 98.5248C90.1567 98.6664 90.9995 98.6656 92.4139 98.5216C94.0375 98.3564 96.2367 97.928 97.0235 97.624C97.2691 97.5288 97.2967 97.6392 97.2967 98.7152V99.9128L96.4751 100.289C95.0187 100.956 93.5427 101.192 90.7343 101.208C88.7835 101.22 87.8331 101.154 86.8283 100.939C85.4195 100.636 84.1835 100.164 83.9843 99.85C83.8543 99.6452 83.8115 97.808 83.9339 97.6852C83.9751 97.644 84.6607 97.7748 85.4575 97.9756C86.2543 98.1768 87.7323 98.4236 88.7423 98.5248Z" fill="#007382"/>
</g>
<defs>
<clipPath id="clip0_306_1823">
<rect width="80" height="80" fill="white" transform="translate(24 24)"/>
</clipPath>
</defs>
</svg>
