<svg width="128" height="128" viewBox="0 0 128 128" fill="none" xmlns="http://www.w3.org/2000/svg">
<rect width="128" height="128" rx="64" fill="#4DB1B1"/>
<g clip-path="url(#clip0_306_1817)">
<path fill-rule="evenodd" clip-rule="evenodd" d="M75.7778 29.7907C75.648 29.9206 75.5873 30.6808 75.5873 32.175V34.3684H62.3447C50.5176 34.3684 49.0754 34.3952 48.8526 34.6182C48.1529 35.319 48.8456 35.9579 50.3053 35.9579H51.3016V40.8854C51.3016 45.6009 51.3153 45.8264 51.6191 46.1306C52.0013 46.5134 52.0821 46.5196 52.5361 46.2011C52.888 45.9544 52.8889 45.9402 52.8889 40.9553V35.9568L76.3413 35.9972L99.7936 36.0374V52.4886V68.9398L76.3413 68.98L52.8889 69.0202V62.8322C52.8889 57.4184 52.8577 56.6127 52.6396 56.3941C52.2873 56.0415 51.838 56.0842 51.5488 56.4977C51.3356 56.8024 51.3016 57.6845 51.3016 62.922V68.9931L50.7084 69.2842C50.3823 69.4446 49.9537 69.8185 49.7561 70.1158C49.4345 70.5992 49.3969 70.8489 49.3975 72.5C49.3981 74.5759 49.591 75.1125 50.5462 75.6959C51.0507 76.0039 51.3699 76.0118 63.3253 76.0125L75.5873 76.0128V82.4942V88.9752L72.2541 93.013C70.4206 95.2337 68.9208 97.15 68.9208 97.2712C68.9208 98.0969 69.9402 98.4279 70.3921 97.7491C70.5232 97.5524 70.7883 97.2128 70.9816 96.9941C71.1749 96.7757 72.2726 95.4593 73.4204 94.0688L75.508 91.5407L75.5519 94.0574C75.5784 95.5836 75.6642 96.6569 75.7696 96.7843C75.9904 97.0504 76.7972 97.058 76.9668 96.7956C77.0376 96.6861 77.131 95.4744 77.1746 94.1021L77.2539 91.608L79.9317 94.8571C82.765 98.2957 83.0547 98.5247 83.5941 97.7536C83.7301 97.5592 83.8414 97.3529 83.8414 97.2952C83.8414 97.1867 82.0353 94.9409 78.9603 91.2258L77.1746 89.0686V82.5405V76.0128H89.4527H101.731L102.27 75.6495C103.077 75.1057 103.276 74.5628 103.338 72.7297C103.408 70.6957 103.106 69.8531 102.128 69.3539C101.783 69.1774 101.455 68.9165 101.4 68.7747C101.273 68.4413 101.27 36.5424 101.398 36.2094C101.471 36.019 101.724 35.9579 102.44 35.9579C102.96 35.9579 103.524 35.8839 103.693 35.7934C104.041 35.607 104.111 34.8614 103.81 34.5592C103.665 34.4139 100.469 34.3684 90.3969 34.3684H77.1746V32.2916C77.1746 31.1494 77.1008 30.0765 77.0105 29.9074C76.8244 29.559 76.0796 29.4886 75.7778 29.7907ZM35.4243 30.9156C33.5564 31.5533 32.0875 32.8758 31.2443 34.6789C30.8419 35.5396 30.747 35.9668 30.6956 37.15C30.6189 38.9174 30.9089 40.0213 31.8018 41.3603C34.8013 45.8584 41.7275 45.4712 44.0772 40.6743C45.3962 37.9814 44.9981 35.0257 43.0252 32.8642C41.1167 30.773 38.104 30.0007 35.4243 30.9156ZM39.873 32.5086C41.0957 32.9595 42.5688 34.4446 42.9792 35.64C43.917 38.3709 42.693 41.2177 40.0508 42.4508C39.2983 42.8021 38.9353 42.8676 37.7302 42.8697C36.4702 42.8719 36.1903 42.8175 35.3578 42.4082C31.9106 40.7132 31.1254 36.6085 33.7111 33.7996C35.2289 32.1506 37.5721 31.6598 39.873 32.5086ZM27.5714 47.9412C26.1498 48.3888 25.0452 49.3662 24.4084 50.7401L24.0032 51.6143L24.0016 62.9878L24 74.361L24.393 75.1472C24.8895 76.1405 25.694 76.7826 26.8048 77.0731C27.5764 77.2749 27.7657 77.2719 28.4956 77.0446C28.9476 76.9038 29.4035 76.7524 29.5086 76.7077C29.6562 76.6456 29.7105 78.7266 29.7467 85.8171L29.7937 95.0071L30.173 95.7725C30.6659 96.7661 31.3417 97.4301 32.33 97.8909C33.9224 98.6336 36.0942 98.2518 37.2489 97.0267L37.713 96.5343L38.3659 97.1369C39.3165 98.0145 40.2476 98.3246 41.6572 98.2329C42.291 98.1917 43.0405 98.0379 43.3229 97.8913C44.0254 97.5263 44.878 96.6442 45.3084 95.8373L45.6667 95.1661L45.7094 75.231C45.7399 60.9853 45.8021 55.2352 45.9272 55.0842C46.0681 54.9141 47.4751 54.8728 53.1181 54.8728C61.0695 54.8728 61.1643 54.8607 62.3258 53.6956C63.7363 52.281 63.6961 50.1121 62.2331 48.7204C61.1317 47.6724 61.978 47.719 44.2578 47.7308C31.8311 47.739 28.063 47.7866 27.5714 47.9412ZM61.1797 49.9087C61.6367 50.3668 61.6985 50.5297 61.6985 51.2828C61.6985 51.9125 61.6151 52.2311 61.3809 52.4938C60.6932 53.2662 60.5119 53.2833 53.0131 53.2836C45.2678 53.2838 45.3062 53.2793 44.5668 54.2882C44.2465 54.7255 44.2361 54.9542 44.1587 63.2688L44.0794 71.801H37.7302H31.381L31.341 63.1381C31.3045 55.2188 31.2781 54.4584 31.0329 54.2768C30.6564 53.9978 30.3987 54.0285 30.0317 54.396C29.7213 54.7069 29.7143 54.9257 29.7143 64.4176C29.7143 75.1174 29.7442 74.7891 28.7252 75.3165C27.6332 75.882 26.1643 75.4246 25.7251 74.3822C25.5484 73.9634 25.5079 71.8198 25.5079 62.8997V51.9323L25.8605 51.2721C26.2689 50.5071 27.2035 49.6803 27.8889 49.4771C28.1552 49.3981 35.4833 49.3478 44.5129 49.3625L60.6606 49.3891L61.1797 49.9087ZM101.529 70.8585C101.822 71.1527 101.886 73.6056 101.614 74.1161C101.452 74.418 101.003 74.4234 76.4072 74.4234C57.1416 74.4234 51.3211 74.3795 51.1746 74.2329C51.0529 74.1107 50.9841 73.4909 50.9841 72.5161C50.9841 71.5414 51.0529 70.9213 51.1746 70.7994C51.3211 70.6528 57.1227 70.6089 76.322 70.6089C98.7986 70.6089 101.304 70.6336 101.529 70.8585ZM44.1227 83.881C44.1719 95.8054 44.2159 95.3398 42.9569 96.2075C41.5368 97.1857 39.6099 96.7222 38.8262 95.2138C38.6441 94.8636 38.6032 93.4528 38.6032 87.5448C38.6032 80.5165 38.5938 80.295 38.2857 79.9867C37.9256 79.6259 37.7591 79.5998 37.3229 79.8332C37.0264 79.9922 37.0159 80.2411 37.0159 87.1211C37.0159 92.0159 36.9595 94.4135 36.8356 94.785C36.4546 95.9266 35.3627 96.7129 34.1587 96.7129C33.0075 96.7129 31.8698 95.9362 31.4705 94.8777C31.3573 94.5779 31.3016 90.9443 31.3016 83.8689V73.3072L37.6905 73.3488L44.0794 73.3903L44.1227 83.881Z" fill="white"/>
</g>
<defs>
<clipPath id="clip0_306_1817">
<rect width="80" height="80" fill="white" transform="translate(24 24)"/>
</clipPath>
</defs>
</svg>
