<svg width="128" height="128" viewBox="0 0 128 128" fill="none" xmlns="http://www.w3.org/2000/svg">
<rect width="128" height="128" rx="64" fill="#007382"/>
<path fill-rule="evenodd" clip-rule="evenodd" d="M57.7275 24.2268C55.4312 24.6843 53.412 25.8291 51.71 27.6385C50.4641 28.9629 49.7503 30.1029 49.2302 31.5984C47.9656 35.2346 48.5252 39.0398 50.7858 42.1771C51.1639 42.702 53.0825 44.731 55.0491 46.686C58.1642 49.7827 58.6872 50.2407 59.1076 50.2407C59.7884 50.2407 60.302 49.7794 60.302 49.1682C60.302 48.7298 59.8734 48.2396 56.6256 44.9641C54.6036 42.9248 52.6948 40.8576 52.3839 40.3701C50.0614 36.7294 50.5595 32.1035 53.6019 29.0613C56.4411 26.2221 60.4916 25.5724 64.1448 27.3702C65.6008 28.0868 67.1428 29.5906 67.8888 31.022C68.5524 32.2944 68.952 32.7407 69.428 32.7407C70.0792 32.7407 70.3932 32.4462 70.9756 31.2893C71.3624 30.5212 71.9028 29.8027 72.6732 29.0323C77.1672 24.5377 84.6304 25.9134 87.284 31.7251C88.4068 34.1841 88.3372 37.0132 87.09 39.6102C86.6468 40.5329 85.778 41.456 78.0812 49.1827L69.5628 57.734L66.508 54.717C64.828 53.0576 63.3048 51.662 63.1238 51.6157C62.2659 51.3965 61.4889 52.209 61.7108 53.093C61.7594 53.2868 63.4431 55.0798 65.4524 57.0774C68.2152 59.8242 69.1984 60.7094 69.4868 60.7094C69.7824 60.7094 71.9496 58.6208 79.1732 51.3735C88.1508 42.3666 88.502 41.9923 89.1352 40.7543C91.2164 36.683 90.74 31.7571 87.9264 28.2651C86.3312 26.2846 83.7424 24.7279 81.1908 24.2145C77.2348 23.4185 72.7228 25.0127 70.2756 28.0708L69.5516 28.9758L68.5572 27.8863C65.7096 24.7665 61.7447 23.4266 57.7275 24.2268ZM66.8852 33.827C66.272 34.0756 66.198 34.3448 66.1532 36.501L66.1092 38.6001L63.9812 38.6434C61.1009 38.7021 61.2656 38.4849 61.2656 42.2235V45.1112L61.7041 45.4885C62.1188 45.8452 62.2519 45.8657 64.1648 45.8657H66.1876V47.9479C66.1876 50.8384 66.0208 50.7094 69.7592 50.7094C72.5756 50.7094 72.6124 50.7051 72.9916 50.3258C73.3596 49.9579 73.3752 49.8599 73.3752 47.904V45.8657H75.4132C77.3692 45.8657 77.4672 45.8502 77.8352 45.4821C78.2144 45.1029 78.2188 45.0674 78.2188 42.2304C78.2188 38.4873 78.366 38.6782 75.4784 38.6782H73.3752V36.7324C73.3752 34.636 73.2456 34.1243 72.6472 33.8516C72.2036 33.6494 67.3744 33.6287 66.8852 33.827ZM71.0312 38.2435C71.1336 41.0465 71.0152 40.928 73.7708 40.9949L75.8752 41.0462V42.284V43.522H73.8148C70.986 43.522 71.0312 43.4773 71.0312 46.2835V48.3657H69.7932H68.5556L68.5044 46.2421C68.4372 43.4598 68.5012 43.522 65.7016 43.522H63.6875V42.2843V41.0468L65.7328 40.9952C67.7524 40.9444 67.7824 40.9384 68.1544 40.5054C68.5108 40.0908 68.5312 39.957 68.5312 38.0379V36.0088L69.742 36.0544L70.9532 36.1001L71.0312 38.2435ZM92.3068 60.7232C91.52 60.8751 91.7548 60.747 82.9144 65.8516C79.1804 68.008 76.0796 69.772 76.024 69.772C75.968 69.772 75.7948 69.4892 75.6392 69.1436C75.4832 68.798 75.0556 68.2384 74.6884 67.9C73.472 66.7788 73.3444 66.7532 68.4532 66.656C64.8016 66.5832 64.0008 66.5264 63.6094 66.3116C62.7817 65.858 59.4348 64.7964 57.9844 64.5276C55.9808 64.156 53.3083 64.2844 51.4295 64.8424C47.8433 65.9072 44.5389 68.4248 41.8311 72.1548C41.2852 72.9068 40.7924 73.522 40.7359 73.522C40.6795 73.522 40.0741 72.9596 39.3906 72.272C37.71 70.5816 37.6319 70.5848 35.8026 72.4224L34.4086 73.8228L33.5886 73.0476C32.9011 72.3972 32.6726 72.272 32.1742 72.272C31.6059 72.272 31.4125 72.4396 27.7898 76.0704C24.3502 79.518 24 79.9176 24 80.3928C24 80.8608 24.2703 81.188 26.5406 83.4692C29.2791 86.2208 29.4864 86.3436 30.307 85.698C30.6152 85.4556 30.7188 85.2332 30.7188 84.8136C30.7188 84.306 30.5375 84.0696 28.8091 82.3212L26.8992 80.3896L29.5517 77.7368L32.2041 75.0848L42.5558 85.4372L52.9075 95.7896L50.2509 98.4428L47.5944 101.096L40.7581 94.2716C36.0722 89.5944 33.7825 87.4136 33.4786 87.3396C32.8175 87.178 32.2175 87.6792 32.1531 88.4464C32.103 89.0428 32.1074 89.0476 39.5767 96.5168C46.0509 102.991 47.112 103.991 47.5103 103.991C47.9022 103.991 48.5412 103.421 51.8444 100.128C56.5352 95.4504 56.3584 95.8932 54.3617 93.822L53.0047 92.4144L54.3524 91.054C56.2281 89.1608 56.2284 89.1552 54.5361 87.426L53.1622 86.022H56.7131H60.2642L60.6476 85.6384C61.1398 85.1464 61.1491 84.4684 60.6697 84.018C60.3147 83.6844 60.22 83.6784 55.5512 83.6784H50.7947L46.6589 79.5404L42.5231 75.4024L42.8148 74.8916C43.4295 73.816 44.8805 71.99 46.0219 70.8564C48.6622 68.2336 51.5197 66.8652 54.7224 66.6904C57.0212 66.5648 59.3678 67.086 62.702 68.4624L63.9824 68.9908H67.8592C69.9916 68.9908 71.9756 69.0592 72.2684 69.1432C73.448 69.4816 74.0508 70.6548 73.61 71.7564C73.1696 72.8568 73.5244 72.8104 64.8848 72.8968L57.0976 72.9752L56.7208 73.4136C56.258 73.9516 56.2459 74.2932 56.6708 74.8332L56.9978 75.2488L65.0816 75.2056L73.1656 75.1624L73.9272 74.6916C74.346 74.4324 74.9732 73.8512 75.3208 73.4C75.9052 72.6412 76.4672 72.2824 82.75 68.6584C92.5892 62.9829 92.4588 63.0532 93.1172 63.0532C94.4464 63.0532 95.3792 64.8024 94.6588 65.944C94.2552 66.5836 74.2604 82.22 73.0284 82.8592C71.6904 83.5536 70.8408 83.6784 67.4436 83.6784C64.5928 83.6784 64.5152 83.6868 64.1836 84.0396C63.7266 84.526 63.7503 85.1616 64.244 85.6548L64.644 86.0552L68.1892 85.9884C72.0252 85.9164 72.814 85.7696 74.4416 84.8248C75.786 84.0444 95.5616 68.5144 96.346 67.6228C97.1112 66.754 97.5144 65.5216 97.3868 64.444C97.1 62.0235 94.6948 60.262 92.3068 60.7232ZM52.1624 89.9652L51.3425 90.7852L43.6891 83.1328L36.0355 75.4804L36.8509 74.6548L37.6662 73.8292L45.3244 81.4872L52.9824 89.1452L52.1624 89.9652Z" fill="white"/>
</svg>
