<svg width="64" height="64" viewBox="0 0 64 64" fill="none" xmlns="http://www.w3.org/2000/svg">
<g clip-path="url(#clip0_306_1876)">
<path d="M60 40.0001C60.004 37.9974 59.5068 36.0255 58.5536 34.2642C57.6003 32.5029 56.2215 31.0082 54.5426 29.9163C52.8637 28.8244 50.9383 28.17 48.9418 28.0128C46.9453 27.8557 44.9411 28.2007 43.1121 29.0164C41.2831 29.8322 39.6873 31.0927 38.4702 32.6832C37.2531 34.2736 36.4534 36.1434 36.1441 38.122C35.8347 40.1007 36.0254 42.1253 36.6989 44.0114C37.3724 45.8974 38.5073 47.5849 40 48.9201V64.0001L48 60.2121L56 64.0001V48.9201C57.2573 47.7988 58.2636 46.4246 58.953 44.8874C59.6423 43.3502 59.9991 41.6848 60 40.0001ZM52 57.6801L48 55.7861L44 57.6801V51.3001C46.5849 52.2336 49.415 52.2336 52 51.3001V57.6801ZM48 48.0001C46.4177 48.0001 44.871 47.5309 43.5554 46.6518C42.2398 45.7728 41.2144 44.5234 40.6089 43.0615C40.0034 41.5997 39.845 39.9912 40.1537 38.4394C40.4624 36.8875 41.2243 35.462 42.3431 34.3432C43.4619 33.2244 44.8874 32.4625 46.4393 32.1538C47.9911 31.8451 49.5996 32.0035 51.0614 32.609C52.5233 33.2145 53.7727 34.2399 54.6517 35.5555C55.5308 36.8711 56 38.4178 56 40.0001C55.9973 42.121 55.1536 44.1543 53.6539 45.654C52.1542 47.1537 50.1209 47.9974 48 48.0001Z" fill="#007382"/>
<path d="M50 10H44V8C43.9968 6.94011 43.5744 5.92453 42.8249 5.17507C42.0755 4.42561 41.0599 4.00317 40 4H24C22.9401 4.00317 21.9245 4.42561 21.1751 5.17507C20.4256 5.92453 20.0032 6.94011 20 8V10H14C12.9401 10.0032 11.9245 10.4256 11.1751 11.1751C10.4256 11.9245 10.0032 12.9401 10 14V56C10.0032 57.0599 10.4256 58.0755 11.1751 58.8249C11.9245 59.5744 12.9401 59.9968 14 60H32V56H14V14H20V20H44V14H50V24H54V14C53.9968 12.9401 53.5744 11.9245 52.8249 11.1751C52.0755 10.4256 51.0599 10.0032 50 10ZM40 16H24V8H40V16Z" fill="#007382"/>
</g>
<defs>
<clipPath id="clip0_306_1876">
<rect width="64" height="64" fill="white"/>
</clipPath>
</defs>
</svg>
