<svg width="24" height="24" viewBox="0 0 24 24" fill="none" xmlns="http://www.w3.org/2000/svg">
<g clip-path="url(#clip0_307_1760)">
<circle cx="12" cy="12" r="12" fill="#F2BC1A"/>
<path d="M21.5 12C21.5 17.2467 17.2467 21.5 12 21.5C6.75329 21.5 2.5 17.2467 2.5 12C2.5 6.75329 6.75329 2.5 12 2.5C17.2467 2.5 21.5 6.75329 21.5 12Z" stroke="#FFF176" stroke-width="5"/>
<path d="M5.8125 13.806V9.081H7.85775C8.28075 9.081 8.64525 9.15075 8.95125 9.29025C9.25725 9.42525 9.4935 9.621 9.66 9.8775C9.8265 10.134 9.90975 10.44 9.90975 10.7955C9.90975 11.1465 9.8265 11.4502 9.66 11.7067C9.4935 11.9632 9.25725 12.1612 8.95125 12.3007C8.64525 12.4357 8.28075 12.5032 7.85775 12.5032H6.42L6.906 12.0105V13.806H5.8125ZM6.906 12.132L6.42 11.6122H7.797C8.1345 11.6122 8.3865 11.5402 8.553 11.3962C8.7195 11.2522 8.80275 11.052 8.80275 10.7955C8.80275 10.5345 8.7195 10.332 8.553 10.188C8.3865 10.044 8.1345 9.972 7.797 9.972H6.42L6.906 9.45225V12.132Z" fill="#FFF176"/>
<path d="M10.6904 13.806V9.081H11.7839V13.806H10.6904Z" fill="#FFF176"/>
<path d="M15.1935 13.887C14.8245 13.887 14.4803 13.8262 14.1608 13.7047C13.8458 13.5832 13.5713 13.4123 13.3373 13.1918C13.1078 12.9712 12.9278 12.7125 12.7973 12.4155C12.6713 12.1185 12.6083 11.7945 12.6083 11.4435C12.6083 11.0925 12.6713 10.7685 12.7973 10.4715C12.9278 10.1745 13.11 9.91575 13.344 9.69525C13.578 9.47475 13.8525 9.30375 14.1675 9.18225C14.4825 9.06075 14.8245 9 15.1935 9C15.567 9 15.909 9.06075 16.2195 9.18225C16.5345 9.30375 16.8068 9.47475 17.0363 9.69525C17.2703 9.91125 17.4525 10.1677 17.583 10.4647C17.7135 10.7617 17.7788 11.088 17.7788 11.4435C17.7788 11.7945 17.7135 12.1207 17.583 12.4222C17.4525 12.7192 17.2703 12.978 17.0363 13.1985C16.8068 13.4145 16.5345 13.5832 16.2195 13.7047C15.909 13.8262 15.567 13.887 15.1935 13.887ZM16.7393 14.8927C16.5548 14.8927 16.3793 14.8725 16.2128 14.832C16.0508 14.7915 15.8888 14.7262 15.7268 14.6363C15.5693 14.5462 15.4028 14.4247 15.2273 14.2717C15.0563 14.1187 14.8695 13.9297 14.667 13.7047L15.8145 13.4145C15.936 13.581 16.0485 13.7137 16.152 13.8127C16.2555 13.9117 16.3545 13.9815 16.449 14.022C16.548 14.0625 16.6515 14.0827 16.7595 14.0827C17.0475 14.0827 17.304 13.9657 17.529 13.7317L18.015 14.3122C17.6955 14.6992 17.2703 14.8927 16.7393 14.8927ZM15.1935 12.9555C15.405 12.9555 15.5985 12.9195 15.774 12.8475C15.954 12.7755 16.1115 12.672 16.2465 12.537C16.3815 12.402 16.485 12.2422 16.557 12.0577C16.6335 11.8687 16.6718 11.664 16.6718 11.4435C16.6718 11.2185 16.6335 11.0137 16.557 10.8292C16.485 10.6447 16.3815 10.485 16.2465 10.35C16.1115 10.215 15.954 10.1115 15.774 10.0395C15.5985 9.9675 15.405 9.9315 15.1935 9.9315C14.982 9.9315 14.7863 9.9675 14.6063 10.0395C14.4263 10.1115 14.2688 10.215 14.1338 10.35C14.0033 10.485 13.8998 10.6447 13.8233 10.8292C13.7513 11.0137 13.7153 11.2185 13.7153 11.4435C13.7153 11.664 13.7513 11.8687 13.8233 12.0577C13.8998 12.2422 14.0033 12.402 14.1338 12.537C14.2688 12.672 14.4263 12.7755 14.6063 12.8475C14.7863 12.9195 14.982 12.9555 15.1935 12.9555Z" fill="#FFF176"/>
</g>
<defs>
<clipPath id="clip0_307_1760">
<rect width="24" height="24" fill="white"/>
</clipPath>
</defs>
</svg>
