<svg width="256" height="256" viewBox="0 0 256 256" fill="none" xmlns="http://www.w3.org/2000/svg">
<rect width="256" height="256" rx="128" fill="#4DB1B1"/>
<g clip-path="url(#clip0_307_1747)">
<path fill-rule="evenodd" clip-rule="evenodd" d="M151.556 59.5812C151.296 59.841 151.175 61.3615 151.175 64.3497V68.7366H124.689C101.035 68.7366 98.1508 68.7901 97.7052 69.2361C96.3057 70.6377 97.6911 71.9156 100.611 71.9156H102.603V81.7705C102.603 91.2015 102.631 91.6526 103.238 92.261C104.003 93.0266 104.164 93.0389 105.072 92.4019C105.776 91.9085 105.778 91.8802 105.778 81.9103V71.9134L152.683 71.9942L199.587 72.0746V104.977V137.879L152.683 137.96L105.778 138.04V125.664C105.778 114.836 105.715 113.225 105.279 112.788C104.575 112.083 103.676 112.168 103.098 112.995C102.671 113.605 102.603 115.369 102.603 125.844V137.986L101.417 138.568C100.765 138.889 99.9074 139.637 99.5121 140.231C98.869 141.198 98.7937 141.697 98.795 145C98.7962 149.152 99.182 150.225 101.092 151.392C102.101 152.008 102.74 152.023 126.651 152.025L151.175 152.025V164.988V177.95L144.508 186.026C140.841 190.467 137.842 194.3 137.842 194.542C137.842 196.194 139.88 196.856 140.784 195.498C141.046 195.104 141.577 194.425 141.963 193.988C142.35 193.551 144.545 190.918 146.841 188.137L151.016 183.081L151.104 188.115C151.157 191.167 151.328 193.314 151.539 193.568C151.981 194.101 153.594 194.116 153.934 193.591C154.075 193.372 154.262 190.949 154.349 188.204L154.508 183.216L159.863 189.714C165.53 196.591 166.109 197.049 167.188 195.507C167.46 195.118 167.683 194.706 167.683 194.59C167.683 194.373 164.071 189.881 157.921 182.451L154.349 178.137V165.081V152.025H178.905H203.462L204.54 151.299C206.155 150.211 206.551 149.125 206.677 145.459C206.815 141.391 206.211 139.706 204.257 138.708C203.565 138.355 202.91 137.833 202.801 137.549C202.546 136.882 202.541 73.0845 202.796 72.4186C202.942 72.0377 203.449 71.9156 204.88 71.9156C205.921 71.9156 207.048 71.7675 207.386 71.5866C208.082 71.2137 208.222 69.7225 207.62 69.1182C207.329 68.8276 200.939 68.7366 180.794 68.7366H154.349V64.583C154.349 62.2986 154.202 60.1528 154.021 59.8146C153.649 59.1177 152.159 58.9769 151.556 59.5812ZM70.8486 61.831C67.1127 63.1064 64.1749 65.7513 62.4886 69.3575C61.6838 71.079 61.494 71.9334 61.3911 74.2998C61.2378 77.8345 61.8178 80.0423 63.6035 82.7203C69.6026 91.7165 83.455 90.9421 88.1543 81.3483C90.7924 75.9625 89.9962 70.0512 86.0505 65.7281C82.2334 61.5458 76.208 60.0012 70.8486 61.831ZM79.7461 65.017C82.1915 65.9188 85.1375 68.8889 85.9585 71.2798C87.8341 76.7417 85.3861 82.4352 80.1017 84.9014C78.5966 85.6039 77.8705 85.735 75.4604 85.7391C72.9403 85.7435 72.3807 85.6348 70.7156 84.8162C63.8213 81.4261 62.2508 73.2168 67.4222 67.5989C70.4578 64.301 75.1441 63.3194 79.7461 65.017ZM55.1429 95.8822C52.2997 96.7774 50.0905 98.7322 48.8168 101.48L48.0063 103.228L48.0032 125.975L48 148.722L48.786 150.294C49.779 152.281 51.3879 153.565 53.6095 154.146C55.1527 154.55 55.5314 154.543 56.9911 154.089C57.8952 153.807 58.807 153.505 59.0172 153.415C59.3124 153.291 59.4209 157.453 59.4934 171.634L59.5873 190.014L60.3461 191.545C61.3317 193.532 62.6835 194.86 64.66 195.782C67.8448 197.267 72.1883 196.503 74.4978 194.053L75.4261 193.068L76.7318 194.274C78.633 196.029 80.4953 196.649 83.3144 196.466C84.5819 196.383 86.081 196.075 86.6458 195.782C88.0508 195.052 89.7559 193.288 90.6169 191.674L91.3334 190.332L91.4188 150.462C91.4797 121.97 91.6042 110.47 91.8544 110.168C92.1363 109.828 94.9502 109.745 106.236 109.745C122.139 109.745 122.329 109.721 124.652 107.391C127.473 104.562 127.392 100.224 124.466 97.4405C122.263 95.3446 123.956 95.4378 88.5156 95.4613C63.6622 95.4779 56.126 95.5729 55.1429 95.8822ZM122.359 99.8172C123.273 100.733 123.397 101.059 123.397 102.565C123.397 103.825 123.23 104.462 122.762 104.987C121.386 106.532 121.024 106.566 106.026 106.567C90.5356 106.567 90.6124 106.558 89.1337 108.576C88.4931 109.451 88.4721 109.908 88.3175 126.537L88.1588 143.602H75.4604H62.7619L62.6819 126.276C62.6089 110.437 62.5562 108.917 62.0657 108.553C61.3127 107.995 60.7975 108.057 60.0635 108.792C59.4426 109.414 59.4286 109.851 59.4286 128.835C59.4286 150.234 59.4883 149.578 57.4505 150.633C55.2664 151.764 52.3286 150.849 51.4502 148.764C51.0968 147.926 51.0159 143.639 51.0159 125.799V103.864L51.721 102.544C52.5378 101.014 54.407 99.3603 55.7778 98.954C56.3105 98.796 70.9667 98.6953 89.0257 98.7248L121.321 98.7779L122.359 99.8172ZM203.057 141.717C203.645 142.305 203.773 147.211 203.227 148.232C202.904 148.836 202.006 148.847 152.814 148.847C114.283 148.847 102.642 148.759 102.349 148.466C102.106 148.221 101.968 146.982 101.968 145.032C101.968 143.083 102.106 141.842 102.349 141.599C102.642 141.305 114.245 141.217 152.644 141.217C197.597 141.217 202.607 141.267 203.057 141.717ZM88.2455 167.762C88.3439 191.611 88.4318 190.679 85.9137 192.415C83.0737 194.371 79.2197 193.444 77.6524 190.427C77.2883 189.727 77.2064 186.905 77.2064 175.089C77.2064 161.033 77.1877 160.59 76.5715 159.973C75.8512 159.251 75.5181 159.199 74.6457 159.666C74.0528 159.984 74.0318 160.482 74.0318 174.242C74.0318 184.032 73.9191 188.827 73.6712 189.57C72.9092 191.853 70.7255 193.426 68.3175 193.426C66.0149 193.426 63.7397 191.872 62.941 189.755C62.7146 189.156 62.6032 181.888 62.6032 167.738V146.614L75.381 146.697L88.1588 146.78L88.2455 167.762Z" fill="white"/>
</g>
<defs>
<clipPath id="clip0_307_1747">
<rect width="160" height="160" fill="white" transform="translate(48 48)"/>
</clipPath>
</defs>
</svg>
