<svg width="985" height="380" viewBox="0 0 985 380" fill="none" xmlns="http://www.w3.org/2000/svg">
<g opacity="0.06">
<path d="M416.312 95.7599C464.199 95.7599 514.1 100.978 566.921 111.443C633.753 124.674 673.501 138.712 732.363 186.826C764.723 213.286 809.362 254.097 823.316 302.764C855.916 416.575 800.358 518.646 746.643 617.355C687.639 725.778 631.91 828.202 683.781 944.325C730.619 1049.17 808.781 1136.65 937.184 1227.97L936.361 1229.12C876.974 1186.89 829.059 1145.97 789.865 1104.01C743.055 1053.9 707.931 1001.85 682.491 944.906C659.065 892.482 655.86 837.504 672.664 776.869C687.667 722.757 717.02 668.829 745.395 616.674C798.982 518.206 854.385 416.405 821.955 303.147C808.115 254.863 763.688 214.265 731.47 187.918C672.848 139.988 633.243 126.006 566.652 112.819C475.047 94.6821 392.262 92.3281 313.547 105.643C249.254 116.52 190.703 142.909 144.206 181.976C77.3313 238.159 24.5664 311.57 -19.6479 375.977C-71.5054 451.516 -133.559 510.407 -187.416 558.053C-335.387 688.951 -508.189 803.216 -747.709 928.542L-748.361 927.28C-508.955 802.011 -336.238 687.803 -188.351 556.989C-134.565 509.4 -72.5831 450.58 -20.8107 375.169C23.4461 310.691 76.282 237.18 143.298 180.884C189.98 141.661 248.771 115.173 313.306 104.24C346.786 98.5959 381.003 95.7599 416.312 95.7599Z" fill="white"/>
<path d="M371.984 106.849C430.989 106.849 491.468 114.903 555.449 131.211C616.155 146.682 654.854 162.535 710.582 210.777C739.978 236.23 760.639 258.366 775.613 280.473C785.695 295.348 793.041 310.209 797.451 324.645C814.779 381.72 812.44 439.775 790.063 507.344C776.96 547.318 758.71 586.654 741.07 624.672C726.989 655.018 712.426 686.413 700.94 717.298C677.372 781.067 658.923 857.314 700.869 939.348C763.22 1061.3 870.196 1139.91 956.441 1194.78L955.675 1195.97C869.288 1141.01 762.099 1062.25 699.592 939.986C657.406 857.47 675.926 780.854 699.607 716.802C711.121 685.86 725.684 654.451 739.78 624.062C757.406 586.073 775.627 546.779 788.716 506.876C810.993 439.59 813.347 381.806 796.104 325.027C791.736 310.734 784.448 296 774.45 281.238C759.547 259.245 738.957 237.194 709.661 211.826C654.159 163.783 615.602 147.986 555.109 132.572C471.459 111.259 393.779 104.055 317.617 110.564C266.426 114.946 200.729 124.957 146.631 163.939C125.956 178.8 107.11 196.355 89.0159 217.626C46.7302 267.328 11.1943 323.297 -15.0393 366.505C-57.9064 437.208 -109.296 501.303 -172.143 562.42C-253.623 641.66 -339.23 705.954 -433.869 758.945C-531.402 813.568 -635.571 854.563 -752.317 884.285L-752.672 882.91C-525.73 825.125 -336.167 719.964 -173.136 561.399C-110.374 500.367 -59.055 436.371 -16.2588 365.767C10.0032 322.517 45.5815 266.491 87.9382 216.704C106.103 195.348 125.034 177.708 145.808 162.79C200.175 123.61 266.114 113.556 317.489 109.16C335.555 107.615 353.706 106.849 371.984 106.849Z" fill="white"/>
<path d="M282.776 112.734C296.063 112.734 309.095 113.287 321.701 114.081C387.427 118.179 465.234 125.765 543.977 150.992C606.484 171.015 641.666 191.364 688.787 234.727C716.254 260.011 735.781 281.919 750.23 303.672C759.873 318.192 767.062 332.614 771.586 346.496C789.368 401.658 789.496 457.642 771.955 522.701C762.128 559.187 748.585 594.95 735.497 629.55C723.5 661.257 711.093 694.042 702.088 726.217C685.1 786.937 673.699 859.144 717.942 934.37C782.476 1044.08 889.58 1113.43 975.698 1161.57L975.003 1162.8C888.744 1114.57 781.413 1045.1 716.708 935.079C672.196 859.399 683.64 786.838 700.713 725.834C709.731 693.588 722.153 660.775 734.164 629.039C747.238 594.482 760.766 558.748 770.579 522.332C788.035 457.557 787.922 401.814 770.225 346.936C765.744 333.167 758.611 318.873 749.039 304.452C734.66 282.784 715.219 260.961 687.823 235.762C640.872 192.569 605.818 172.291 543.538 152.339C464.951 127.155 387.242 119.583 321.602 115.499C266.525 112.067 202.955 113.003 149.027 145.916C126.991 159.288 107.464 176.942 89.3278 199.886C46.2905 254.31 11.7613 315.64 -10.4734 357.032C-55.1415 440.455 -103.043 509.074 -156.914 566.788C-318.754 740.171 -509.423 826.983 -756.954 840L-757.025 838.582C-509.891 825.593 -319.52 738.923 -157.949 565.824C-104.163 508.209 -56.3327 439.69 -11.7214 356.366C10.5417 314.917 45.1134 253.516 88.2216 199.007C106.472 175.921 126.126 158.167 148.304 144.696C190.192 119.129 237.81 112.734 282.776 112.734Z" fill="white"/>
<path d="M-389.939 755.854C-296.561 718.716 -215.351 658.293 -141.67 571.127C-81.0914 499.474 -37.2883 413.995 -5.89307 347.546C26.7784 278.686 57.1386 226.12 89.6541 182.118C107.975 157.331 128.182 139.591 151.438 127.85C198.063 104.14 252.714 111.16 300.941 117.356C309.52 118.463 317.631 119.498 325.686 120.391C396.445 128.162 463.93 145.065 531.981 172.078C588.263 194.413 622.083 216.519 666.013 259.67C691.496 284.699 709.816 306.295 723.656 327.637C732.93 341.916 739.709 355.388 744.374 368.816C762.652 422.134 765.219 475.821 752.457 537.775C745.749 570.347 736.532 602.225 727.627 633.053C717.516 668.007 707.973 701.033 701.819 734.867C691.269 792.737 686.83 861.2 733.824 930.173C797.99 1024.33 895.877 1081.72 984.986 1125.14V1123.56C896.217 1080.26 798.826 1023.05 735.001 929.365C688.305 860.817 692.729 792.709 703.223 735.108C709.377 701.345 718.906 668.362 729.003 633.435C737.922 602.579 747.139 570.687 753.861 538.058C766.68 475.849 764.099 421.936 745.721 368.348C741.027 354.806 734.193 341.236 724.862 326.857C710.965 305.43 692.573 283.763 667.02 258.649C622.934 215.343 589 193.165 532.52 170.745C464.341 143.689 396.743 126.758 325.856 118.973C317.815 118.094 309.719 117.045 301.139 115.953C278.408 113.031 254.259 109.926 230.167 109.926C202.926 109.926 175.757 113.896 150.814 126.588C127.345 138.428 106.982 156.31 88.5195 181.281C55.9473 225.354 25.5447 277.991 -7.16931 346.936C-38.5362 413.314 -82.2825 498.68 -142.747 570.205C-297.909 753.741 -488.705 822.842 -761.392 794.24L-761.535 795.644C-616.966 810.831 -495.398 797.814 -389.939 755.854Z" fill="white"/>
<path d="M-368.073 754.167C-274.114 723.877 -195.059 665.426 -126.426 575.48C-72.9659 505.444 -35.303 419.794 -1.31274 338.073C28.9339 265.711 57.9469 210.521 89.9661 164.378C108.486 137.691 129.387 119.838 153.848 109.812C199.481 90.9101 251.537 104.835 297.481 117.115C308.768 120.136 319.432 122.986 329.727 125.297C397.339 140.484 459.718 162.237 520.438 191.817C570.849 216.378 603.237 240.399 644.204 283.578C667.772 308.422 684.958 329.792 698.274 350.821C707.207 364.888 713.815 377.934 718.509 390.696C737.255 441.689 742.431 494.851 734.334 553.203C730.463 581.053 725.145 608.279 719.998 634.598C712.653 672.19 705.704 707.698 702.911 743.872C696.941 821.24 711.291 875.479 750.925 925.224C812.269 1002.24 901.251 1049.49 984.986 1084.75V1083.21C901.591 1048.04 813.049 1000.95 752.046 924.359C712.667 874.912 698.401 820.97 704.343 743.999C707.136 707.91 714.071 672.445 721.402 634.882C726.549 608.535 731.881 581.294 735.752 553.402C743.892 494.808 738.688 441.419 719.856 390.2C715.134 377.339 708.469 364.208 699.479 350.056C686.107 328.941 668.864 307.515 645.239 282.6C604.131 239.279 571.643 215.186 521.062 190.541C460.257 160.904 397.778 139.109 330.053 123.908C319.787 121.596 309.137 118.76 297.864 115.74C268.071 107.771 235.711 99.1205 204.132 99.1205C186.789 99.1205 169.66 101.73 153.338 108.494C128.622 118.618 107.521 136.642 88.8316 163.556C56.7415 209.784 27.686 265.059 -2.58899 337.506C-36.5509 419.142 -74.1713 504.692 -127.518 574.601C-272.341 764.376 -469.179 818.446 -765.76 749.913L-766.072 751.288C-606.628 788.171 -476.439 789.093 -368.073 754.167Z" fill="white"/>
<path d="M-346.292 752.394C-295.739 739.731 -251.511 718.588 -211.068 687.718C-174.54 659.839 -141.868 624.544 -111.182 579.834C-62.6711 509.131 -30.808 421.893 2.927 329.523L3.26733 328.587C31.2026 252.481 58.8543 194.653 90.2921 146.625C109.053 117.966 130.621 100.014 156.259 91.761C202.714 76.588 254.359 97.9577 299.934 116.818C311.874 121.766 323.161 126.432 333.768 130.176C397.637 152.779 454.911 179.395 508.881 211.542C553.563 238.159 584.335 264.165 622.395 307.486C643.75 331.777 660.27 353.544 672.905 374.006C681.442 387.818 687.908 400.438 692.672 412.591C712.256 462.477 719.955 513.541 716.226 568.66C714.751 590.37 712.653 611.64 710.625 632.216C706.512 673.864 702.627 713.214 704.045 752.933C706.654 825.437 725.798 875.494 768.055 920.332C826.535 982.357 904.839 1019.28 984.986 1047.42V1045.91C905.165 1017.86 827.244 981.052 769.104 919.367C727.102 874.799 708.072 825.012 705.477 752.89C704.059 713.271 707.931 673.963 712.043 632.358C714.071 611.768 716.183 590.497 717.644 568.759C721.388 513.413 713.645 462.165 693.991 412.066C689.184 399.829 682.69 387.137 674.11 373.255C661.433 352.722 644.856 330.898 623.458 306.55C585.285 263.102 554.428 237.024 509.604 210.323C455.563 178.133 398.204 151.474 334.236 128.828C323.658 125.085 312.399 120.419 300.473 115.485C265.603 101.063 227.189 85.1671 190.136 85.1671C178.522 85.1671 167.022 86.727 155.819 90.3855C129.869 98.7519 108.046 116.874 89.101 145.816C57.6064 193.944 29.9123 251.857 1.93451 328.076L1.59418 329.012C-32.1125 421.283 -63.9474 508.45 -112.359 578.997C-246.136 773.962 -449.029 813.015 -770.227 705.599L-770.681 706.946C-596.135 765.341 -457.324 780.202 -346.292 752.394Z" fill="white"/>
<path d="M-324.596 750.551C-227.432 732.91 -154.772 680.046 -95.9381 584.187C-54.9002 517.341 -28.851 435.038 -1.28442 347.886C1.73599 338.343 4.77065 328.743 7.84778 319.128C33.5425 239.038 59.847 178.587 90.6183 128.885C109.606 98.2131 131.855 80.1756 158.67 73.7094C207.223 61.8262 262.087 92.8528 306.159 117.796C317.404 124.163 328.025 130.161 337.796 135.068C396.999 164.747 449.182 196.227 497.31 231.281C536.391 259.755 565.347 287.832 600.571 331.408C620.013 355.458 635.37 376.984 647.508 397.205C655.662 410.776 661.986 422.971 666.808 434.485C687.454 483.691 697.692 532.642 698.104 584.13C698.217 597.276 698.189 610.279 698.16 622.857C698.075 671.112 697.99 716.688 705.165 762.008C715.716 828.628 740.404 875.947 785.185 915.44C842.346 965.822 914.495 993.828 984.986 1013.37V1011.89C914.779 992.41 842.984 964.489 786.149 914.362C741.623 875.096 717.091 828.032 706.598 761.767C699.437 716.56 699.522 671.042 699.607 622.843C699.635 610.265 699.649 597.261 699.55 584.102C699.125 532.429 688.858 483.308 668.141 433.932C663.291 422.361 656.938 410.109 648.742 396.468C636.575 376.19 621.175 354.622 601.692 330.501C566.383 286.826 537.355 258.678 498.161 230.118C449.962 195.008 397.722 163.499 338.448 133.777C328.706 128.899 318.099 122.887 306.868 116.548C269.305 95.3061 223.97 69.668 181.131 69.668C173.431 69.668 165.817 70.4904 158.344 72.3197C131.16 78.871 108.613 97.1212 89.4272 128.119C58.5992 177.921 32.2521 238.471 6.51483 318.675C3.4377 328.289 0.403162 337.889 -2.61725 347.432C-30.1696 434.485 -56.1907 516.717 -97.1293 583.421C-155.751 678.912 -228.099 731.577 -324.837 749.133C-438.124 769.708 -585.245 740.965 -774.637 661.3L-775.19 662.604C-585.542 742.411 -438.166 771.169 -324.596 750.551Z" fill="white"/>
<path d="M-302.999 748.651C-204.744 737.292 -134.097 686.413 -80.6801 588.526C-45.3285 523.736 -23.8453 443.958 -1.1142 359.486C3.26752 343.178 7.80523 326.332 12.4422 309.642C35.9106 225.453 60.8538 162.379 90.9445 111.131C110.159 78.4173 133.103 60.2663 161.08 55.6436C212.98 46.9085 269.9 88.1733 315.618 121.341C324.977 128.133 333.811 134.529 341.851 139.932C395.155 175.723 442.234 212.053 485.767 251.006C519.389 281.083 546.332 311.301 578.776 355.316C596.303 379.083 610.483 400.367 622.14 420.404C630.081 434.017 636.065 445.447 640.971 456.38C663.05 505.543 675.826 552.395 680.009 599.587C685.568 662.193 690.375 716.277 706.328 771.055C724.323 832.825 753.932 875.848 802.343 910.533C855.775 948.792 920.621 969.325 984.986 982.527V981.08C920.862 967.921 856.314 947.445 803.18 909.37C755.038 874.884 725.585 832.102 707.69 770.644C691.779 716.007 686.972 661.994 681.428 599.445C677.216 552.097 664.411 505.103 642.261 455.784C637.327 444.809 631.328 433.337 623.359 419.667C611.674 399.602 597.452 378.26 579.911 354.452C547.409 310.365 520.41 280.076 486.703 249.928C443.127 210.947 395.992 174.574 342.631 138.74C334.619 133.366 325.785 126.957 316.44 120.178C274.764 89.9459 223.857 53.0203 175.573 53.0203C170.638 53.0203 165.703 53.4031 160.839 54.2256C132.422 58.9193 109.152 77.297 89.7108 110.394C59.5492 161.755 34.5494 224.943 11.0526 309.245C6.42976 325.935 1.87788 342.795 -2.50385 359.103C-25.2207 443.49 -46.6755 523.183 -81.942 587.831C-161.309 733.265 -306.204 850.465 -779.09 617L-779.714 618.277C-574.893 719.411 -418.952 762.051 -302.999 748.651Z" fill="white"/>
<path d="M-433.685 727.267C-344.505 751.061 -272.653 753.585 -214.018 734.981C-149.455 714.49 -102.248 669.34 -65.4504 592.88C-34.8067 529.196 -17.1664 450.736 1.50909 367.668C6.47221 345.589 11.6055 322.758 17.0082 300.183C38.5198 210.592 61.4211 146.809 91.2565 93.3916C110.698 58.6073 134.322 40.3573 163.491 37.5922C220.439 32.0618 285.513 90.6267 328.578 129.367C334.733 134.912 340.547 140.144 345.893 144.781C391.426 184.429 434.591 226.786 474.196 270.703C502.458 302.027 527.202 334.471 556.953 379.21C572.508 402.594 585.526 423.652 596.757 443.575C602.032 452.934 608.895 465.342 615.12 478.26C639.61 529.097 654.485 572.559 661.915 615.029C671.09 667.511 682.959 723.821 707.491 780.088C732.094 836.526 767.686 876.401 819.516 905.598C869.615 933.817 926.563 947.671 985 955.23V953.797C926.776 946.253 870.068 932.442 820.21 904.365C768.665 875.323 733.257 835.661 708.796 779.521C684.334 723.395 672.48 667.185 663.319 614.788C655.875 572.176 640.957 528.6 616.411 477.65C610.171 464.704 603.294 452.267 598.005 442.88C586.76 422.914 573.728 401.842 558.144 378.416C528.351 333.621 503.564 301.134 475.26 269.753C435.612 225.793 392.404 183.394 346.828 143.718C341.497 139.081 335.683 133.848 329.529 128.318C288.207 91.1371 226.707 35.8054 171.106 35.8054C168.511 35.8054 165.916 35.9188 163.349 36.1741C134.095 38.9392 109.421 57.955 90.0228 92.6968C60.1165 146.228 37.1727 210.124 15.6328 299.843C10.23 322.432 5.09672 345.263 0.133606 367.341C-18.5277 450.325 -36.1397 528.714 -66.7267 592.256C-103.34 668.333 -150.277 713.256 -214.443 733.619C-272.809 752.139 -344.406 749.615 -433.317 725.891C-530.126 700.069 -644.674 649.955 -783.542 572.701L-784.237 573.935C-645.27 651.26 -530.608 701.416 -433.685 727.267Z" fill="white"/>
<path d="M-408.983 717.156C-314.925 747.275 -240.903 752.763 -182.693 733.96C-123.476 714.83 -81.3748 671.382 -50.2064 597.219C-23.7034 534.13 -9.40959 456.337 5.72083 373.978C10.7265 346.723 15.9021 318.547 21.5884 290.711C34.5209 227.481 54.1749 145.902 91.5826 75.6522C110.953 39.2655 135.967 20.3914 165.902 19.5264C166.653 19.498 167.391 19.4979 168.142 19.4979C232.62 19.4979 306.415 101.361 346.261 145.575L349.948 149.659C388.448 192.3 425.302 238.343 462.639 290.427C485.824 322.758 507.506 356.465 535.143 403.133C548.544 425.75 560.384 446.567 571.374 466.788L572.523 468.901C578.081 479.125 583.824 489.704 589.27 500.183C613.802 547.701 632.477 588.044 643.807 630.528C660.086 691.532 680.69 741.943 708.64 789.164C739.524 840.964 781.399 877.45 836.66 900.706C882.788 920.105 933.313 928.429 984.986 931.321V929.903C933.469 927.025 883.129 918.715 837.213 899.387C782.235 876.245 740.588 839.943 709.859 788.426C681.981 741.319 661.419 691.022 645.168 630.146C633.796 587.548 615.092 547.12 590.517 499.516C585.058 489.023 579.315 478.444 573.756 468.206L572.608 466.093C561.618 445.858 549.749 425.027 536.349 402.395C508.683 355.699 486.987 321.964 463.788 289.591C426.423 237.464 389.525 191.378 350.997 148.695L347.311 144.611C307.308 100.227 233.244 18.0657 168.128 18.0657C167.362 18.0657 166.597 18.0799 165.845 18.0941C135.357 18.9733 109.946 38.1026 90.3063 74.9714C52.8135 145.377 33.1313 227.098 20.1705 290.413C14.4842 318.263 9.30827 346.44 4.30261 373.708C-10.8136 455.997 -25.0931 533.719 -51.5394 596.666C-82.5376 670.432 -124.355 713.625 -183.147 732.613C-241.074 751.316 -314.811 745.829 -408.572 715.809C-511.195 682.953 -635.315 621.651 -788.023 528.387L-788.76 529.593C-635.939 622.914 -511.72 684.272 -408.983 717.156Z" fill="white"/>
<path d="M-137.359 727.692C-89.6703 706.28 -56.3608 664.036 -32.5662 594.723C-11.4233 533.166 -0.532881 458.45 10.9957 379.338C27.3031 267.413 44.1778 151.673 91.8804 57.8984C109.819 22.6461 132.932 3.70111 160.57 1.60242C229.656 -3.63013 311.434 95.1358 354.004 154.48C419.432 245.688 471.885 346.979 522.594 444.922C530.379 459.939 538.15 474.956 545.977 489.945C554.244 505.784 563.249 521.794 571.955 537.264C591.652 572.276 612.015 608.478 625.713 645.957C646.033 701.515 672.749 749.884 709.817 798.168C779.754 889.291 878.69 912.391 984.986 910.675V909.257C879.059 910.944 780.52 887.958 710.937 797.317C673.969 749.147 647.31 700.905 627.046 645.489C613.305 607.911 592.914 571.652 573.189 536.584C564.497 521.113 555.492 505.132 547.239 489.307C539.426 474.318 531.641 459.315 523.87 444.284C473.119 346.284 420.651 244.951 355.167 153.672C313.519 95.618 234.506 -0.0141803 165.902 0C164.087 0 162.271 0.0709854 160.471 0.198608C132.294 2.33984 108.798 21.54 90.6325 57.2603C42.8164 151.247 25.9278 267.101 9.6062 379.139C-1.90823 458.181 -12.7988 532.84 -33.8991 594.269C-57.5661 663.186 -90.6204 705.174 -137.94 726.402C-254.105 778.557 -462.088 701.558 -792.462 484.074L-793.242 485.251C-462.429 703.032 -254.02 780.06 -137.359 727.692Z" fill="white"/>
</g>
</svg>
