<svg width="64" height="64" viewBox="0 0 64 64" fill="none" xmlns="http://www.w3.org/2000/svg">
<path d="M26.0303 3.07874L19.523 14.9794L31.4239 21.4867L33.5827 17.5385L28.2798 14.6387C29.5029 14.3797 30.7498 14.2494 32 14.2501C41.8298 14.2501 49.75 22.1704 49.75 32.0001C49.75 41.8299 41.8298 49.7501 32 49.7501C22.1702 49.7501 14.25 41.8299 14.25 32.0001C14.25 29.9426 14.5981 27.9692 15.237 26.1341L11.197 24.1141C10.2632 26.567 9.75 29.2249 9.75 32.0001C9.75 44.2617 19.7384 54.2501 32 54.2501C44.2616 54.2501 54.25 44.2617 54.25 32.0001C54.25 19.7385 44.2616 9.75011 32 9.75011C30.3621 9.75011 28.7656 9.93011 27.2275 10.2686L29.9785 5.23736L26.0303 3.07861V3.07874ZM39.064 19.3761L30.875 31.6595V46.0001H33.125V32.3407L40.936 20.6241L39.064 19.3761Z" fill="#007382"/>
</svg>
