<svg width="35" height="35" viewBox="0 0 35 35" fill="none" xmlns="http://www.w3.org/2000/svg">
<circle opacity="0.1" cx="17.5" cy="17.4999" r="17.5" fill="white"/>
<path d="M13.9099 23.9996H11.2147V15.3203H13.9099V23.9996ZM12.5609 14.1364C11.699 14.1364 11 13.4226 11 12.5607C11 12.1468 11.1644 11.7498 11.4572 11.457C11.7499 11.1643 12.1469 10.9999 12.5609 10.9999C12.9748 10.9999 13.3719 11.1643 13.6646 11.457C13.9573 11.7498 14.1217 12.1468 14.1217 12.5607C14.1217 13.4226 13.4224 14.1364 12.5609 14.1364ZM23.9971 23.9996H21.3077V19.7746C21.3077 18.7677 21.2874 17.4764 19.9065 17.4764C18.5052 17.4764 18.2904 18.5703 18.2904 19.702V23.9996H15.5982V15.3203H18.1831V16.5043H18.2208C18.5806 15.8224 19.4596 15.1027 20.7709 15.1027C23.4986 15.1027 24 16.8989 24 19.232V23.9996H23.9971Z" fill="white"/>
</svg>
