<svg width="14" height="19" viewBox="0 0 14 19" fill="none" xmlns="http://www.w3.org/2000/svg">
<path d="M6.2806 18.2899C0.983281 10.6104 0 9.82223 0 6.99988C0 3.13387 3.13399 -0.00012207 7 -0.00012207C10.866 -0.00012207 14 3.13387 14 6.99988C14 9.82223 13.0167 10.6104 7.7194 18.2899C7.37177 18.7921 6.6282 18.7921 6.2806 18.2899ZM7 9.91654C8.61084 9.91654 9.91667 8.61072 9.91667 6.99988C9.91667 5.38904 8.61084 4.08321 7 4.08321C5.38916 4.08321 4.08333 5.38904 4.08333 6.99988C4.08333 8.61072 5.38916 9.91654 7 9.91654Z" fill="#F24D5D"/>
</svg>
