<svg width="155" height="200" viewBox="0 0 155 200" fill="none" xmlns="http://www.w3.org/2000/svg">
<g clip-path="url(#clip0_306_1831)">
<path d="M77.6005 122.355C37.4019 122.355 4.81445 89.7672 4.81445 49.5686C45.0132 49.5686 77.6005 82.1561 77.6005 122.355Z" fill="#4DB1B1"/>
<path d="M77.1931 57.8947C45.2187 57.8947 19.2983 31.9744 19.2983 0C51.2727 -1.39764e-06 77.1931 25.9203 77.1931 57.8947Z" fill="#4DB1B1"/>
<path d="M75.8877 122.355C116.086 122.355 148.674 89.7672 148.674 49.5686C108.475 49.5686 75.8877 82.1561 75.8877 122.355Z" fill="#4DB1B1"/>
<path d="M75.4385 57.8947C107.413 57.8947 133.333 31.9744 133.333 0C101.359 -1.39764e-06 75.4385 25.9203 75.4385 57.8947Z" fill="#4DB1B1"/>
<path d="M0 122.807C1.78979e-06 143.28 8.13281 162.914 22.6093 177.391C37.0858 191.867 56.7202 200 77.193 200C97.6658 200 117.3 191.867 131.777 177.391C146.253 162.914 154.386 143.28 154.386 122.807H77.193H0Z" fill="#FF736E"/>
</g>
<defs>
<clipPath id="clip0_306_1831">
<rect width="154.386" height="200" fill="white"/>
</clipPath>
</defs>
</svg>
