<svg width="66" height="66" viewBox="0 0 66 66" fill="none" xmlns="http://www.w3.org/2000/svg">
<circle opacity="0.1" cx="33" cy="33" r="32" stroke="#007382"/>
<path d="M33.0107 25.9698C29.1168 25.9698 25.976 29.1106 25.976 33.0045C25.976 36.8984 29.1168 40.0392 33.0107 40.0392C36.9046 40.0392 40.0454 36.8984 40.0454 33.0045C40.0454 29.1106 36.9046 25.9698 33.0107 25.9698ZM33.0107 37.578C30.4944 37.578 28.4372 35.527 28.4372 33.0045C28.4372 30.4821 30.4883 28.4311 33.0107 28.4311C35.5332 28.4311 37.5842 30.4821 37.5842 33.0045C37.5842 35.527 35.527 37.578 33.0107 37.578ZM41.974 25.6821C41.974 26.5943 41.2393 27.3229 40.3331 27.3229C39.4209 27.3229 38.6923 26.5882 38.6923 25.6821C38.6923 24.776 39.427 24.0413 40.3331 24.0413C41.2393 24.0413 41.974 24.776 41.974 25.6821ZM46.6331 27.3474C46.5291 25.1494 46.027 23.2025 44.4168 21.5984C42.8127 19.9943 40.8658 19.4923 38.6678 19.3821C36.4025 19.2535 29.6128 19.2535 27.3474 19.3821C25.1556 19.4862 23.2087 19.9882 21.5985 21.5923C19.9883 23.1964 19.4924 25.1433 19.3821 27.3413C19.2536 29.6066 19.2536 36.3964 19.3821 38.6617C19.4862 40.8596 19.9883 42.8066 21.5985 44.4106C23.2087 46.0147 25.1495 46.5168 27.3474 46.627C29.6128 46.7555 36.4025 46.7555 38.6678 46.627C40.8658 46.5229 42.8127 46.0208 44.4168 44.4106C46.0209 42.8066 46.5229 40.8596 46.6331 38.6617C46.7617 36.3964 46.7617 29.6127 46.6331 27.3474ZM43.7066 41.0923C43.2291 42.2923 42.3046 43.2168 41.0985 43.7004C39.2923 44.4168 35.0066 44.2515 33.0107 44.2515C31.0148 44.2515 26.723 44.4106 24.923 43.7004C23.723 43.2229 22.7985 42.2984 22.3148 41.0923C21.5985 39.2862 21.7638 35.0004 21.7638 33.0045C21.7638 31.0086 21.6046 26.7168 22.3148 24.9168C22.7924 23.7168 23.7168 22.7923 24.923 22.3086C26.7291 21.5923 31.0148 21.7576 33.0107 21.7576C35.0066 21.7576 39.2985 21.5984 41.0985 22.3086C42.2985 22.7862 43.2229 23.7106 43.7066 24.9168C44.4229 26.7229 44.2576 31.0086 44.2576 33.0045C44.2576 35.0004 44.4229 39.2923 43.7066 41.0923Z" fill="#007382"/>
</svg>
