<svg width="66" height="66" viewBox="0 0 66 66" fill="none" xmlns="http://www.w3.org/2000/svg">
<circle opacity="0.1" cx="33" cy="33" r="32" stroke="#007382"/>
<path d="M26.4353 44.8852H21.5069V29.0145H26.4353V44.8852ZM23.9685 26.8496C22.3925 26.8496 21.1143 25.5443 21.1143 23.9684C21.1143 23.2114 21.415 22.4855 21.9503 21.9502C22.4855 21.415 23.2115 21.1143 23.9685 21.1143C24.7254 21.1143 25.4514 21.415 25.9866 21.9502C26.5219 22.4855 26.8226 23.2114 26.8226 23.9684C26.8226 25.5443 25.5438 26.8496 23.9685 26.8496ZM44.8804 44.8852H39.9627V37.1594C39.9627 35.3182 39.9256 32.957 37.4004 32.957C34.838 32.957 34.4454 34.9574 34.4454 37.0268V44.8852H29.5224V29.0145H34.2491V31.1794H34.318C34.976 29.9325 36.5832 28.6166 38.9811 28.6166C43.9688 28.6166 44.8857 31.9011 44.8857 36.1672V44.8852H44.8804Z" fill="#007382"/>
</svg>
