<svg width="24" height="24" viewBox="0 0 24 24" fill="none" xmlns="http://www.w3.org/2000/svg">
<path d="M5.43527 23.8852H0.506941V8.01454H5.43527V23.8852ZM2.96845 5.84965C1.39253 5.84965 0.114288 4.54434 0.114288 2.96842C0.114288 2.21145 0.414994 1.48548 0.950253 0.950223C1.48551 0.414963 2.21148 0.114258 2.96845 0.114258C3.72542 0.114258 4.45139 0.414963 4.98665 0.950223C5.52191 1.48548 5.82262 2.21145 5.82262 2.96842C5.82262 4.54434 4.54384 5.84965 2.96845 5.84965ZM23.8804 23.8852H18.9627V16.1594C18.9627 14.3182 18.9256 11.957 16.4004 11.957C13.838 11.957 13.4454 13.9574 13.4454 16.0268V23.8852H8.52237V8.01454H13.2491V10.1794H13.318C13.976 8.9325 15.5832 7.61658 17.9811 7.61658C22.9688 7.61658 23.8857 10.9011 23.8857 15.1672V23.8852H23.8804Z" fill="#007382"/>
</svg>
