<svg width="65" height="61" viewBox="0 0 65 61" fill="none" xmlns="http://www.w3.org/2000/svg">
<g clip-path="url(#clip0_112_1230)">
<path d="M19.7782 9.8721C19.7227 9.49314 19.6941 9.10652 19.6941 8.7138C19.6941 3.90104 23.9926 -0.000488281 29.2955 -0.000488281C34.5984 -0.000488281 38.8969 3.90104 38.8969 8.7138C38.8969 9.10658 38.8684 9.49329 38.8127 9.8723L48.0189 6.32562C51.6773 4.91611 55.9173 6.45447 57.4967 9.76465C59.0819 13.0862 57.3882 16.9316 53.717 18.3459L42.1054 22.8194V26.6458C40.4165 27.0071 38.807 27.5555 37.3047 28.2652V22.3387C37.3047 20.8817 38.2645 19.5657 39.7421 18.9964L51.8412 14.3352C53.0593 13.8659 53.6174 12.5984 53.0916 11.4964C52.5603 10.383 51.1252 9.86228 49.8947 10.3364L33.9851 16.4656C33.4747 16.6623 32.953 16.8255 32.4236 16.9551C31.443 17.2616 30.3907 17.4281 29.2955 17.4281C28.1997 17.4281 27.1467 17.2615 26.1658 16.9546C25.637 16.825 25.116 16.662 24.6062 16.4656L8.6968 10.3364C7.46619 9.86228 6.03116 10.383 5.49982 11.4964C4.97392 12.5984 5.53227 13.8659 6.75024 14.3352L18.8649 19.0024C20.3427 19.5717 21.3024 20.8877 21.3024 22.3447V33.6988C21.3024 34.1011 21.2287 34.5005 21.0844 34.8808L15.0272 50.8468C14.5956 51.9846 15.2619 53.2243 16.5153 53.6159C17.7687 54.0077 19.1347 53.403 19.5664 52.2655L26.3139 34.4796C27.0228 32.6095 29.3265 32.1003 30.9111 32.9407C27.9036 36.2149 26.0944 40.4274 26.0944 45.0233C26.0944 45.9796 26.1728 46.919 26.3239 47.8369L24.1056 53.6839C22.8107 57.097 18.7127 58.911 14.9523 57.7357C11.192 56.5607 9.19325 52.8412 10.488 49.4284L16.5017 33.5771V22.8254L4.87448 18.3459C1.20325 16.9316 -0.490563 13.0862 1.09457 9.76465C2.67425 6.45447 6.91401 4.91611 10.5726 6.32562L19.7782 9.8721ZM24.4948 8.7138C24.4948 10.5762 25.7823 12.1657 27.5935 12.7892C28.7114 13.036 29.8786 13.0361 30.9965 12.7895C32.8083 12.1662 34.0962 10.5765 34.0962 8.7138C34.0962 6.3074 31.9468 4.35665 29.2955 4.35665C26.6442 4.35665 24.4948 6.3074 24.4948 8.7138ZM64.5 45.0233C64.5 53.8468 56.6192 60.9995 46.8974 60.9995C37.1757 60.9995 29.2949 53.8468 29.2949 45.0233C29.2949 36.1998 37.1757 29.0471 46.8974 29.0471C56.6192 29.0471 64.5 36.1998 64.5 45.0233ZM57.6305 38.1867C57.0055 37.6197 55.9922 37.6197 55.3671 38.1867L43.697 48.7789L38.4277 43.9962C37.8027 43.4292 36.7894 43.4292 36.1643 43.9962C35.5396 44.5635 35.5396 45.4831 36.1643 46.0504L42.5653 51.86C43.1903 52.427 44.2036 52.427 44.8286 51.86L57.6305 40.2409C58.2552 39.6736 58.2552 38.754 57.6305 38.1867Z" fill="#007382"/>
</g>
<defs>
<clipPath id="clip0_112_1230">
<rect width="65" height="61" fill="white" transform="translate(0 -0.000488281)"/>
</clipPath>
</defs>
</svg>
