<svg width="15" height="15" viewBox="0 0 15 15" fill="none" xmlns="http://www.w3.org/2000/svg">
<path d="M14.4898 4.8198C14.3522 4.70605 11.2167 2.18455 10.5274 1.63649C9.87981 1.11888 8.77257 0 7.5 0C6.23423 0 5.13762 1.10499 4.47261 1.63649C3.75592 2.20632 0.632666 4.71838 0.513135 4.81664C0.352694 4.94857 0.223469 5.1144 0.134747 5.30221C0.0460237 5.49003 5.89157e-06 5.69516 0 5.90288L0 13.5938C0 14.3704 0.62959 15 1.40625 15H13.5938C14.3704 15 15 14.3704 15 13.5938V5.90358C15 5.69652 14.9543 5.492 14.8661 5.30466C14.7779 5.11731 14.6494 4.95175 14.4898 4.8198ZM13.5938 13.418C13.5938 13.4646 13.5752 13.5093 13.5423 13.5423C13.5093 13.5752 13.4646 13.5938 13.418 13.5938H1.58203C1.53541 13.5938 1.4907 13.5752 1.45774 13.5423C1.42477 13.5093 1.40625 13.4646 1.40625 13.418V5.98673C1.40625 5.93361 1.43016 5.88343 1.47146 5.85006C1.93641 5.47465 4.65876 3.285 5.34932 2.73601C5.88149 2.31094 6.80854 1.40625 7.5 1.40625C8.19413 1.40625 9.13644 2.32526 9.65068 2.73601C10.3413 3.28506 13.0639 5.47506 13.5286 5.85073C13.549 5.8672 13.5654 5.88801 13.5767 5.91165C13.5879 5.93529 13.5938 5.96115 13.5938 5.98734V13.418ZM12.6565 7.91883C12.781 8.06997 12.758 8.29368 12.6054 8.41632C11.7565 9.09844 10.8688 9.81076 10.5274 10.0822C9.86238 10.6138 8.76577 11.7188 7.5 11.7188C6.22699 11.7188 5.11854 10.5985 4.47261 10.0822C4.14217 9.81952 3.24964 9.10333 2.39467 8.41626C2.24203 8.29359 2.21909 8.06991 2.34354 7.91877L2.79056 7.37596C2.91296 7.22733 3.13207 7.20478 3.28213 7.32539C4.12055 7.99925 4.99793 8.70337 5.34932 8.98274C5.86356 9.39349 6.80587 10.3125 7.5 10.3125C8.19146 10.3125 9.11854 9.40781 9.65068 8.98274C10.0021 8.7034 10.8795 7.99925 11.718 7.32548C11.868 7.20489 12.0871 7.22745 12.2095 7.37607L12.6565 7.91883Z" fill="#F24D5D"/>
</svg>
