<svg width="64" height="64" viewBox="0 0 64 64" fill="none" xmlns="http://www.w3.org/2000/svg">
<path d="M57.6004 14.4016V32.824C56.6133 32.0089 55.5403 31.304 54.4004 30.7216V14.4016C54.4004 13.9772 54.2318 13.5703 53.9318 13.2702C53.6317 12.9701 53.2247 12.8016 52.8004 12.8016H38.4004C37.1274 12.8016 35.9065 13.3073 35.0063 14.2074C34.1061 15.1076 33.6004 16.3285 33.6004 17.6016V34.3216C32.2832 35.7157 31.2024 37.3154 30.4004 39.0576V17.6016C30.4004 16.3285 29.8947 15.1076 28.9945 14.2074C28.0943 13.3073 26.8734 12.8016 25.6004 12.8016H11.2004C10.776 12.8016 10.3691 12.9701 10.069 13.2702C9.76896 13.5703 9.60039 13.9772 9.60039 14.4016V49.6016C9.60039 50.0259 9.76896 50.4329 10.069 50.7329C10.3691 51.033 10.776 51.2016 11.2004 51.2016H25.6004C26.9828 51.2016 28.2308 50.616 29.1044 49.6816C29.3252 50.84 29.6548 51.9568 30.09 53.0256C28.81 53.8928 27.2644 54.4016 25.6004 54.4016H11.2004C9.92735 54.4016 8.70645 53.8958 7.80628 52.9957C6.9061 52.0955 6.40039 50.8746 6.40039 49.6016V14.4016C6.40039 13.1285 6.9061 11.9076 7.80628 11.0075C8.70645 10.1073 9.92735 9.60156 11.2004 9.60156H25.6004C28.218 9.60156 30.5412 10.8592 32.0004 12.8016C33.4596 10.8592 35.7828 9.60156 38.4004 9.60156H52.8004C54.0734 9.60156 55.2943 10.1073 56.1945 11.0075C57.0947 11.9076 57.6004 13.1285 57.6004 14.4016Z" fill="#007382"/>
<path d="M41.6315 44.8C41.7819 41.1904 42.4315 38.0064 43.3595 35.68C43.8939 34.3456 44.4891 33.3696 45.0715 32.7552C45.6475 32.1472 46.0955 32 46.3995 32C46.7003 32 47.1515 32.1472 47.7275 32.7552C48.3099 33.3696 48.9051 34.3456 49.4395 35.68C50.3675 38.0064 51.0171 41.1904 51.1675 44.8H41.6315ZM40.3867 34.4928C40.5915 33.9808 40.8155 33.488 41.0523 33.024C38.6329 33.993 36.5214 35.5998 34.9425 37.6734C33.3636 39.7471 32.3764 42.2099 32.0859 44.8H38.4283C38.5787 40.8512 39.2859 37.248 40.3867 34.4928ZM52.4091 34.4928C52.2108 33.9929 51.9886 33.5027 51.7435 33.024C54.1632 33.9927 56.2749 35.5994 57.8538 37.6731C59.4328 39.7468 60.4198 42.2098 60.7099 44.8H54.3675C54.2171 40.8512 53.5131 37.248 52.4091 34.4928ZM54.3675 48H60.7099C60.4198 50.5902 59.4328 53.0532 57.8538 55.1269C56.2749 57.2006 54.1632 58.8073 51.7435 59.776C51.9835 59.312 52.2043 58.8192 52.4091 58.3072C53.5131 55.5488 54.2171 51.9488 54.3675 48ZM47.7275 60.0448C47.1515 60.6528 46.7035 60.8 46.3995 60.8C46.0955 60.8 45.6475 60.6528 45.0715 60.0448C44.4891 59.4304 43.8939 58.4544 43.3595 57.12C42.4315 54.7936 41.7819 51.6096 41.6315 48H51.1675C51.0171 51.6096 50.3675 54.7936 49.4395 57.12C48.9051 58.4544 48.3099 59.4304 47.7275 60.0416V60.0448ZM32.0859 48C32.3764 50.5901 33.3636 53.0529 34.9425 55.1266C36.5214 57.2002 38.6329 58.807 41.0523 59.776C40.8075 59.2971 40.5854 58.807 40.3867 58.3072C39.2859 55.5488 38.5787 51.9488 38.4283 48H32.0859Z" fill="#007382"/>
</svg>
