<svg width="28" height="28" viewBox="0 0 28 28" fill="none" xmlns="http://www.w3.org/2000/svg">
<path d="M14.0107 6.96983C10.1168 6.96983 6.97602 10.1106 6.97602 14.0045C6.97602 17.8984 10.1168 21.0392 14.0107 21.0392C17.9046 21.0392 21.0454 17.8984 21.0454 14.0045C21.0454 10.1106 17.9046 6.96983 14.0107 6.96983ZM14.0107 18.578C11.4944 18.578 9.43724 16.527 9.43724 14.0045C9.43724 11.4821 11.4883 9.43105 14.0107 9.43105C16.5332 9.43105 18.5842 11.4821 18.5842 14.0045C18.5842 16.527 16.527 18.578 14.0107 18.578ZM22.974 6.68207C22.974 7.59432 22.2393 8.32289 21.3331 8.32289C20.4209 8.32289 19.6923 7.5882 19.6923 6.68207C19.6923 5.77595 20.427 5.04126 21.3331 5.04126C22.2393 5.04126 22.974 5.77595 22.974 6.68207ZM27.6331 8.34738C27.5291 6.14942 27.027 4.20248 25.4168 2.5984C23.8127 0.994318 21.8658 0.492277 19.6678 0.382073C17.4025 0.253502 10.6128 0.253502 8.34745 0.382073C6.15561 0.486155 4.20868 0.988195 2.59847 2.59228C0.988271 4.19636 0.492353 6.1433 0.382149 8.34126C0.253578 10.6066 0.253578 17.3964 0.382149 19.6617C0.486231 21.8596 0.988271 23.8066 2.59847 25.4106C4.20868 27.0147 6.14949 27.5168 8.34745 27.627C10.6128 27.7555 17.4025 27.7555 19.6678 27.627C21.8658 27.5229 23.8127 27.0208 25.4168 25.4106C27.0209 23.8066 27.5229 21.8596 27.6331 19.6617C27.7617 17.3964 27.7617 10.6127 27.6331 8.34738ZM24.7066 22.0923C24.2291 23.2923 23.3046 24.2168 22.0985 24.7004C20.2923 25.4168 16.0066 25.2515 14.0107 25.2515C12.0148 25.2515 7.72296 25.4106 5.92296 24.7004C4.72296 24.2229 3.79847 23.2984 3.3148 22.0923C2.59847 20.2862 2.76378 16.0004 2.76378 14.0045C2.76378 12.0086 2.6046 7.71677 3.3148 5.91677C3.79235 4.71677 4.71684 3.79228 5.92296 3.3086C7.72908 2.59228 12.0148 2.75758 14.0107 2.75758C16.0066 2.75758 20.2985 2.5984 22.0985 3.3086C23.2985 3.78615 24.2229 4.71064 24.7066 5.91677C25.4229 7.72289 25.2576 12.0086 25.2576 14.0045C25.2576 16.0004 25.4229 20.2923 24.7066 22.0923Z" fill="#007382"/>
</svg>
