<svg width="64" height="64" viewBox="0 0 64 64" fill="none" xmlns="http://www.w3.org/2000/svg">
<g clip-path="url(#clip0_112_1219)">
<path fill-rule="evenodd" clip-rule="evenodd" d="M19.1924 0.164765C16.6847 0.71431 14.5822 2.33744 13.4478 4.59964C13.1286 5.23646 12.8673 5.83089 12.8673 5.92067C12.8673 6.01045 10.6268 7.25133 7.88858 8.67802C2.45962 11.5066 2.09088 11.7247 1.40251 12.5136C-0.557034 14.7595 -0.450447 18.2742 1.64211 20.4139C2.45711 21.2473 3.28364 21.6758 5.02699 22.1686C5.77812 22.3809 6.43919 22.6378 6.49605 22.7396C6.55292 22.8415 7.44608 27.173 8.48102 32.3652L10.3625 41.8056L10.3624 52.9028L10.3623 64H12.241H14.1198V57.4355V50.8709H21.5095H28.8993V57.4355V64H30.7781H32.6568V57.4355V50.8709H34.5356H36.4143V57.4355V64H42.0496H47.6848L47.7171 56.5484L47.7495 49.097L51.1806 54.3076C53.7151 58.1567 54.6643 59.5042 54.8128 59.4643C55.166 59.3694 64.0333 53.4727 63.9999 53.355C63.9087 53.0339 53.9478 38.0604 53.3642 37.3668C51.0128 34.5734 47.6988 32.7628 43.9961 32.2487C43.4671 32.1753 41.2771 32.1144 39.1295 32.1135L35.2244 32.1119L34.1815 26.8306C33.608 23.926 33.1289 21.4432 33.1168 21.3134C33.1009 21.1403 34.28 20.1668 37.5416 17.6602C42.3125 13.9934 42.8976 13.4339 43.4213 12.0364C43.9971 10.5002 43.8678 8.64976 43.0824 7.18306C42.6416 6.36005 41.5399 5.26347 40.7074 4.81883C39.7425 4.30367 38.8948 4.17651 32.9699 3.65797L27.5842 3.1867L27.166 2.70718C26.6149 2.07523 25.373 1.19933 24.3769 0.739818C22.8561 0.0381008 20.8071 -0.189094 19.1924 0.164765ZM22.9498 4.22214C23.8956 4.68691 24.7867 5.60345 25.2425 6.58C25.5262 7.18781 25.5763 7.46365 25.5763 8.42032C25.5763 9.37861 25.5264 9.65245 25.2405 10.265C24.7702 11.2729 23.8084 12.2472 22.8525 12.6843C22.1816 12.991 21.9162 13.0409 20.9459 13.043C19.9425 13.0452 19.7292 13.0031 19.0045 12.6591C17.9702 12.1684 17.192 11.3917 16.6993 10.3584C16.355 9.63644 16.3117 9.41988 16.3117 8.42032C16.3117 7.42076 16.355 7.20419 16.6993 6.48222C17.3211 5.17844 18.4953 4.20064 19.8495 3.85916C20.7223 3.63909 22.0889 3.79901 22.9498 4.22214ZM34.801 7.59569C38.1739 7.90028 38.6897 7.97518 39.0819 8.21713C39.995 8.78043 40.3169 10.26 39.7073 11.0916C39.5268 11.3381 30.5268 18.3908 29.116 19.3915C28.9073 19.5395 28.9683 19.9174 30.1493 25.7972C30.8396 29.2338 31.4043 32.0612 31.4043 32.0804C31.4043 32.0995 28.8199 32.1151 25.6613 32.1151H19.9182L18.8859 26.9573C18.3182 24.1205 17.8367 21.7819 17.8162 21.7607C17.7955 21.7393 14.8948 20.9459 11.37 19.9976C7.4571 18.9448 4.83323 18.1778 4.63221 18.028C3.99806 17.5554 3.78664 17.1439 3.78664 16.3824C3.78664 15.0764 3.83962 15.0327 8.13959 12.7934C10.2231 11.7082 12.1024 10.7173 12.3157 10.5911L12.7035 10.3618L12.8603 10.8916C13.476 12.97 15.1502 14.9311 17.1506 15.9168C19.6226 17.1349 22.1567 17.1654 24.5782 16.0062C27.6063 14.5563 29.5802 11.2678 29.3714 8.02032L29.3119 7.09591L30.1389 7.17268C30.5938 7.21494 32.6916 7.40525 34.801 7.59569ZM12.6864 24.2355C13.7018 24.5093 14.5533 24.7539 14.5784 24.7789C14.6035 24.804 15.1548 27.4637 15.8035 30.6893C16.4523 33.915 17.0654 36.7831 17.1662 37.063C17.397 37.7045 17.9597 38.8237 18.2776 39.2736L18.5206 39.6175H16.1323C14.8188 39.6175 13.744 39.6021 13.744 39.5833C13.744 39.5646 13.0395 36.0351 12.1784 31.74C11.3173 27.445 10.6128 23.8873 10.6128 23.8342C10.6128 23.6843 10.7187 23.7048 12.6864 24.2355ZM43.9898 36.057C46.2555 36.4515 48.172 37.4553 49.8167 39.1089C50.74 40.0373 51.4078 40.9789 54.8267 46.1734C56.9963 49.4696 58.7852 52.2267 58.8019 52.3003C58.8187 52.3738 58.1475 52.8731 57.3102 53.4097C56.0851 54.1951 55.7593 54.3538 55.6411 54.2225C55.5602 54.1328 53.7797 51.4454 51.6844 48.2505C49.1177 44.3368 47.6442 42.2098 47.1684 41.7311C46.284 40.8415 45.1295 40.19 43.8653 39.8672C42.934 39.6293 42.4732 39.6175 34.2085 39.6175C28.2554 39.6175 25.3214 39.5733 24.8661 39.4768C23.3396 39.1532 21.7563 37.9663 21.0838 36.6415C20.9047 36.2884 20.758 35.9697 20.758 35.9329C20.758 35.8963 25.7387 35.8663 31.8263 35.8663C41.183 35.8663 43.0638 35.8958 43.9898 36.057ZM28.8993 45.2442V47.1198H21.5095H14.1198V45.2442V43.3686H21.5095H28.8993V45.2442ZM36.4143 45.2442V47.1198H34.5356H32.6568V45.2442V43.3686H34.5356H36.4143V45.2442ZM43.4596 43.6511L43.9293 43.856V52.0524V60.2488H42.0506H40.1718V51.7952V43.3416L41.5809 43.3939C42.5096 43.4284 43.15 43.516 43.4596 43.6511Z" fill="#007382"/>
</g>
<defs>
<clipPath id="clip0_112_1219">
<rect width="64" height="64" fill="white"/>
</clipPath>
</defs>
</svg>
