<svg width="204" height="23" viewBox="0 0 204 23" fill="none" xmlns="http://www.w3.org/2000/svg">
<path d="M30.972 6.74888C30.3713 6.74888 30.071 6.46554 30.071 5.89888C30.071 5.34354 30.3713 5.06588 30.972 5.06588C31.5727 5.06588 31.873 5.34354 31.873 5.89888C31.873 6.46554 31.5727 6.74888 30.972 6.74888ZM30.972 17.0849C30.5187 17.0849 30.292 16.8355 30.292 16.3369V9.38388C30.292 8.89654 30.5187 8.65288 30.972 8.65288C31.4367 8.65288 31.669 8.89654 31.669 9.38388V16.3369C31.669 16.8355 31.4367 17.0849 30.972 17.0849ZM35.0082 17.1189C34.5548 17.1189 34.3282 16.8809 34.3282 16.4049V9.31588C34.3282 8.85121 34.5492 8.61888 34.9912 8.61888C35.4445 8.61888 35.6712 8.85121 35.6712 9.31588V10.1489C35.9432 9.62754 36.3285 9.23654 36.8272 8.97588C37.3258 8.71521 37.8868 8.58488 38.5102 8.58488C40.4708 8.58488 41.4512 9.67288 41.4512 11.8489V16.4049C41.4512 16.8809 41.2245 17.1189 40.7712 17.1189C40.3065 17.1189 40.0742 16.8809 40.0742 16.4049V11.9339C40.0742 11.1632 39.9212 10.6022 39.6152 10.2509C39.3205 9.88821 38.8445 9.70688 38.1872 9.70688C37.4278 9.70688 36.8215 9.94488 36.3682 10.4209C35.9262 10.8855 35.7052 11.5089 35.7052 12.2909V16.4049C35.7052 16.8809 35.4728 17.1189 35.0082 17.1189ZM45.1973 17.1189C44.7439 17.1189 44.5173 16.8809 44.5173 16.4049V9.80888H43.4293C43.0326 9.80888 42.8343 9.62754 42.8343 9.26488C42.8343 8.91354 43.0326 8.73788 43.4293 8.73788H44.5173V8.44888C44.5173 6.32954 45.5543 5.17921 47.6283 4.99788L48.1213 4.94688C48.3253 4.93554 48.4726 4.98088 48.5633 5.08288C48.6539 5.18488 48.6993 5.30954 48.6993 5.45688C48.7106 5.59288 48.6766 5.71754 48.5973 5.83088C48.5179 5.94421 48.4046 6.00654 48.2573 6.01788L47.8663 6.05188C47.1749 6.10854 46.6706 6.31821 46.3533 6.68088C46.0473 7.04354 45.8943 7.57621 45.8943 8.27888V8.73788H47.7303C48.1269 8.73788 48.3253 8.91354 48.3253 9.26488C48.3253 9.62754 48.1269 9.80888 47.7303 9.80888H45.8943V16.4049C45.8943 16.8809 45.6619 17.1189 45.1973 17.1189ZM53.023 17.1529C52.2183 17.1529 51.5213 16.9772 50.932 16.6259C50.3427 16.2745 49.8837 15.7815 49.555 15.1469C49.2377 14.5009 49.079 13.7415 49.079 12.8689C49.079 11.9962 49.2377 11.2425 49.555 10.6079C49.8837 9.96188 50.3427 9.46321 50.932 9.11188C51.5213 8.76054 52.2183 8.58488 53.023 8.58488C53.8163 8.58488 54.5077 8.76054 55.097 9.11188C55.6977 9.46321 56.1567 9.96188 56.474 10.6079C56.8027 11.2425 56.967 11.9962 56.967 12.8689C56.967 13.7415 56.8027 14.5009 56.474 15.1469C56.1567 15.7815 55.6977 16.2745 55.097 16.6259C54.5077 16.9772 53.8163 17.1529 53.023 17.1529ZM53.023 16.0479C53.7937 16.0479 54.4113 15.7759 54.876 15.2319C55.3407 14.6765 55.573 13.8889 55.573 12.8689C55.573 11.8375 55.3407 11.0499 54.876 10.5059C54.4113 9.96188 53.7937 9.68988 53.023 9.68988C52.241 9.68988 51.6177 9.96188 51.153 10.5059C50.6997 11.0499 50.473 11.8375 50.473 12.8689C50.473 13.8889 50.6997 14.6765 51.153 15.2319C51.6177 15.7759 52.241 16.0479 53.023 16.0479ZM61.9083 17.1529C61.3983 17.1529 60.8826 17.0905 60.3613 16.9659C59.8513 16.8299 59.3753 16.6145 58.9333 16.3199C58.7293 16.1952 58.6273 16.0365 58.6273 15.8439C58.6386 15.6399 58.7179 15.4812 58.8653 15.3679C59.0126 15.2545 59.1996 15.2545 59.4263 15.3679C59.8683 15.6399 60.2933 15.8325 60.7013 15.9459C61.1206 16.0479 61.5343 16.0989 61.9423 16.0989C62.5883 16.0989 63.0756 15.9799 63.4043 15.7419C63.7329 15.5039 63.8973 15.1809 63.8973 14.7729C63.8973 14.4555 63.7896 14.2062 63.5743 14.0249C63.3589 13.8322 63.0189 13.6849 62.5543 13.5829L61.0073 13.2429C59.6019 12.9369 58.8993 12.2115 58.8993 11.0669C58.8993 10.3189 59.1939 9.71821 59.7833 9.26488C60.3839 8.81154 61.1659 8.58488 62.1293 8.58488C62.6166 8.58488 63.0869 8.65288 63.5403 8.78888C63.9936 8.91354 64.4016 9.11754 64.7643 9.40088C64.9569 9.53688 65.0419 9.70121 65.0193 9.89388C64.9966 10.0865 64.9059 10.2395 64.7473 10.3529C64.5999 10.4549 64.4186 10.4379 64.2033 10.3019C63.8633 10.0752 63.5176 9.91088 63.1663 9.80888C62.8149 9.69554 62.4693 9.63888 62.1293 9.63888C61.4946 9.63888 61.0129 9.76354 60.6843 10.0129C60.3556 10.2622 60.1913 10.5909 60.1913 10.9989C60.1913 11.6335 60.6106 12.0415 61.4493 12.2229L62.9963 12.5459C63.7216 12.7045 64.2713 12.9595 64.6453 13.3109C65.0193 13.6509 65.2063 14.1155 65.2063 14.7049C65.2063 15.4642 64.9059 16.0649 64.3053 16.5069C63.7046 16.9375 62.9056 17.1529 61.9083 17.1529ZM68.0699 6.74888C67.4692 6.74888 67.1689 6.46554 67.1689 5.89888C67.1689 5.34354 67.4692 5.06588 68.0699 5.06588C68.6705 5.06588 68.9709 5.34354 68.9709 5.89888C68.9709 6.46554 68.6705 6.74888 68.0699 6.74888ZM68.0699 17.0849C67.6165 17.0849 67.3899 16.8355 67.3899 16.3369V9.38388C67.3899 8.89654 67.6165 8.65288 68.0699 8.65288C68.5345 8.65288 68.7669 8.89654 68.7669 9.38388V16.3369C68.7669 16.8355 68.5345 17.0849 68.0699 17.0849ZM72.14 17.1189C71.6867 17.1189 71.46 16.8809 71.46 16.4049V9.31588C71.46 8.85121 71.681 8.61888 72.123 8.61888C72.5764 8.61888 72.803 8.85121 72.803 9.31588V10.1319C73.0524 9.63321 73.398 9.25354 73.84 8.99288C74.282 8.72088 74.7977 8.58488 75.387 8.58488C76.679 8.58488 77.5064 9.14588 77.869 10.2679C78.1184 9.74654 78.4867 9.33854 78.974 9.04388C79.4614 8.73788 80.0224 8.58488 80.657 8.58488C82.493 8.58488 83.411 9.67288 83.411 11.8489V16.4049C83.411 16.8809 83.1787 17.1189 82.714 17.1189C82.2607 17.1189 82.034 16.8809 82.034 16.4049V11.9169C82.034 11.1575 81.898 10.6022 81.626 10.2509C81.3654 9.88821 80.929 9.70688 80.317 9.70688C79.6484 9.70688 79.1157 9.94488 78.719 10.4209C78.3224 10.8969 78.124 11.5315 78.124 12.3249V16.4049C78.124 16.8809 77.8917 17.1189 77.427 17.1189C76.9737 17.1189 76.747 16.8809 76.747 16.4049V11.9169C76.747 11.1575 76.611 10.6022 76.339 10.2509C76.0784 9.88821 75.642 9.70688 75.03 9.70688C74.35 9.70688 73.8117 9.94488 73.415 10.4209C73.0297 10.8969 72.837 11.5315 72.837 12.3249V16.4049C72.837 16.8809 72.6047 17.1189 72.14 17.1189ZM86.7506 20.1789C86.2973 20.1789 86.0706 19.9465 86.0706 19.4819V9.31588C86.0706 8.85121 86.2916 8.61888 86.7336 8.61888C87.1983 8.61888 87.4306 8.85121 87.4306 9.31588V10.1999C87.6686 9.70121 88.0369 9.31021 88.5356 9.02688C89.0343 8.73221 89.6066 8.58488 90.2526 8.58488C90.9893 8.58488 91.6296 8.76054 92.1736 9.11188C92.7289 9.45188 93.1539 9.94488 93.4486 10.5909C93.7546 11.2255 93.9076 11.9849 93.9076 12.8689C93.9076 13.7415 93.7546 14.5009 93.4486 15.1469C93.1539 15.7815 92.7289 16.2745 92.1736 16.6259C91.6296 16.9772 90.9893 17.1529 90.2526 17.1529C89.6179 17.1529 89.0513 17.0112 88.5526 16.7279C88.0539 16.4445 87.6856 16.0535 87.4476 15.5549V19.4819C87.4476 19.9465 87.2153 20.1789 86.7506 20.1789ZM89.9636 16.0479C90.7343 16.0479 91.3519 15.7759 91.8166 15.2319C92.2813 14.6765 92.5136 13.8889 92.5136 12.8689C92.5136 11.8375 92.2813 11.0499 91.8166 10.5059C91.3519 9.96188 90.7343 9.68988 89.9636 9.68988C89.1929 9.68988 88.5753 9.96188 88.1106 10.5059C87.6459 11.0499 87.4136 11.8375 87.4136 12.8689C87.4136 13.8889 87.6459 14.6765 88.1106 15.2319C88.5753 15.7759 89.1929 16.0479 89.9636 16.0479ZM98.5827 17.1529C97.7667 17.1529 97.1434 16.9092 96.7127 16.4219C96.2821 15.9232 96.0667 15.2035 96.0667 14.2629V5.59288C96.0667 5.12821 96.2934 4.89588 96.7467 4.89588C97.2114 4.89588 97.4437 5.12821 97.4437 5.59288V14.1609C97.4437 15.3735 97.9254 15.9799 98.8887 15.9799C98.9907 15.9799 99.0814 15.9742 99.1607 15.9629C99.2401 15.9515 99.3194 15.9459 99.3987 15.9459C99.5234 15.9345 99.6084 15.9629 99.6537 16.0309C99.7104 16.0989 99.7387 16.2349 99.7387 16.4389C99.7387 16.8242 99.5461 17.0452 99.1607 17.1019C99.0701 17.1245 98.9737 17.1359 98.8717 17.1359C98.7697 17.1472 98.6734 17.1529 98.5827 17.1529ZM104.822 17.1529C103.519 17.1529 102.487 16.7732 101.728 16.0139C100.969 15.2432 100.589 14.2005 100.589 12.8859C100.589 12.0359 100.759 11.2879 101.099 10.6419C101.439 9.98454 101.904 9.48021 102.493 9.12888C103.094 8.76621 103.785 8.58488 104.567 8.58488C105.689 8.58488 106.567 8.94754 107.202 9.67288C107.837 10.3869 108.154 11.3729 108.154 12.6309C108.154 12.9822 107.956 13.1579 107.559 13.1579H101.932C101.977 14.0985 102.249 14.8182 102.748 15.3169C103.247 15.8042 103.938 16.0479 104.822 16.0479C105.196 16.0479 105.576 16.0025 105.961 15.9119C106.346 15.8099 106.72 15.6342 107.083 15.3849C107.344 15.2149 107.559 15.1809 107.729 15.2829C107.91 15.3849 108.001 15.5435 108.001 15.7589C108.012 15.9629 107.899 16.1442 107.661 16.3029C107.287 16.5749 106.839 16.7845 106.318 16.9319C105.808 17.0792 105.309 17.1529 104.822 17.1529ZM104.601 9.60488C103.819 9.60488 103.201 9.84854 102.748 10.3359C102.295 10.8232 102.028 11.4635 101.949 12.2569H106.964C106.93 11.4182 106.709 10.7665 106.301 10.3019C105.904 9.83721 105.338 9.60488 104.601 9.60488ZM117.185 19.7709C115.746 19.7709 114.482 19.4649 113.394 18.8529C112.317 18.2522 111.479 17.3965 110.878 16.2859C110.277 15.1752 109.977 13.8662 109.977 12.3589C109.977 11.2482 110.153 10.2339 110.504 9.31588C110.867 8.39788 111.377 7.61021 112.034 6.95288C112.703 6.28421 113.49 5.76854 114.397 5.40588C115.304 5.04321 116.307 4.86188 117.406 4.86188C118.721 4.86188 119.871 5.12821 120.857 5.66088C121.843 6.18221 122.608 6.91321 123.152 7.85388C123.707 8.79454 123.985 9.89388 123.985 11.1519C123.985 12.1379 123.849 12.9935 123.577 13.7189C123.316 14.4442 122.942 15.0052 122.455 15.4019C121.968 15.7985 121.401 15.9969 120.755 15.9969C120.2 15.9969 119.752 15.8665 119.412 15.6059C119.072 15.3339 118.868 14.9599 118.8 14.4839C118.483 14.9825 118.097 15.3622 117.644 15.6229C117.202 15.8722 116.732 15.9969 116.233 15.9969C115.36 15.9969 114.68 15.7249 114.193 15.1809C113.717 14.6255 113.479 13.8662 113.479 12.9029C113.479 12.0755 113.638 11.3389 113.955 10.6929C114.272 10.0355 114.709 9.51988 115.264 9.14588C115.819 8.77188 116.448 8.58488 117.151 8.58488C118.239 8.58488 118.959 9.02688 119.31 9.91088L119.429 9.19688C119.486 8.83421 119.695 8.65288 120.058 8.65288C120.455 8.65288 120.619 8.86254 120.551 9.28188L119.871 13.1409C119.826 13.4355 119.803 13.7019 119.803 13.9399C119.803 14.6992 120.143 15.0789 120.823 15.0789C121.469 15.0789 121.996 14.7219 122.404 14.0079C122.812 13.2825 123.016 12.3305 123.016 11.1519C123.016 10.0752 122.778 9.14021 122.302 8.34688C121.837 7.55354 121.186 6.93588 120.347 6.49388C119.508 6.05188 118.522 5.83088 117.389 5.83088C116.131 5.83088 115.026 6.10288 114.074 6.64688C113.122 7.19088 112.38 7.95588 111.847 8.94188C111.314 9.91654 111.048 11.0555 111.048 12.3589C111.048 13.7075 111.297 14.8635 111.796 15.8269C112.295 16.7902 113.003 17.5269 113.921 18.0369C114.839 18.5582 115.927 18.8189 117.185 18.8189C118.012 18.8189 118.76 18.6999 119.429 18.4619C120.109 18.2239 120.687 17.9009 121.163 17.4929C121.367 17.3342 121.554 17.2889 121.724 17.3569C121.894 17.4249 121.996 17.5495 122.03 17.7309C122.064 17.9235 121.979 18.1049 121.775 18.2749C121.254 18.7282 120.596 19.0909 119.803 19.3629C119.021 19.6349 118.148 19.7709 117.185 19.7709ZM116.386 15.0109C116.896 15.0109 117.344 14.8635 117.729 14.5689C118.126 14.2629 118.437 13.8435 118.664 13.3109C118.891 12.7782 119.004 12.1662 119.004 11.4749C119.004 10.2055 118.426 9.57088 117.27 9.57088C116.771 9.57088 116.324 9.71821 115.927 10.0129C115.53 10.2962 115.213 10.6872 114.975 11.1859C114.748 11.6845 114.635 12.2569 114.635 12.9029C114.635 13.5829 114.788 14.1042 115.094 14.4669C115.4 14.8295 115.831 15.0109 116.386 15.0109ZM130.059 20.2129C129.458 20.2129 128.869 20.1392 128.291 19.9919C127.724 19.8559 127.208 19.6349 126.744 19.3289C126.574 19.2269 126.472 19.1022 126.438 18.9549C126.415 18.8189 126.438 18.6829 126.506 18.5469C126.574 18.4222 126.67 18.3315 126.795 18.2749C126.931 18.2182 127.072 18.2295 127.22 18.3089C127.718 18.6149 128.194 18.8245 128.648 18.9379C129.101 19.0512 129.549 19.1079 129.991 19.1079C131.623 19.1079 132.439 18.2692 132.439 16.5919V15.1299C132.201 15.6512 131.827 16.0649 131.317 16.3709C130.818 16.6655 130.246 16.8129 129.6 16.8129C128.84 16.8129 128.183 16.6372 127.628 16.2859C127.072 15.9345 126.642 15.4529 126.336 14.8409C126.041 14.2175 125.894 13.4979 125.894 12.6819C125.894 11.8659 126.041 11.1519 126.336 10.5399C126.642 9.91654 127.072 9.43488 127.628 9.09488C128.183 8.75488 128.84 8.58488 129.6 8.58488C130.246 8.58488 130.818 8.72654 131.317 9.00988C131.815 9.29321 132.184 9.68988 132.422 10.1999V9.31588C132.422 8.85121 132.648 8.61888 133.102 8.61888C133.555 8.61888 133.782 8.85121 133.782 9.31588V16.4049C133.782 17.6742 133.464 18.6262 132.83 19.2609C132.206 19.8955 131.283 20.2129 130.059 20.2129ZM129.855 15.6909C130.648 15.6909 131.277 15.4189 131.742 14.8749C132.206 14.3309 132.439 13.5999 132.439 12.6819C132.439 11.7639 132.206 11.0385 131.742 10.5059C131.277 9.96188 130.648 9.68988 129.855 9.68988C129.073 9.68988 128.449 9.96188 127.985 10.5059C127.52 11.0385 127.288 11.7639 127.288 12.6819C127.288 13.5999 127.52 14.3309 127.985 14.8749C128.449 15.4189 129.073 15.6909 129.855 15.6909ZM137.164 17.1189C136.71 17.1189 136.484 16.8809 136.484 16.4049V9.31588C136.484 8.85121 136.705 8.61888 137.147 8.61888C137.6 8.61888 137.827 8.85121 137.827 9.31588V10.1319C138.076 9.63321 138.422 9.25354 138.864 8.99288C139.306 8.72088 139.821 8.58488 140.411 8.58488C141.703 8.58488 142.53 9.14588 142.893 10.2679C143.142 9.74654 143.51 9.33854 143.998 9.04388C144.485 8.73788 145.046 8.58488 145.681 8.58488C147.517 8.58488 148.435 9.67288 148.435 11.8489V16.4049C148.435 16.8809 148.202 17.1189 147.738 17.1189C147.284 17.1189 147.058 16.8809 147.058 16.4049V11.9169C147.058 11.1575 146.922 10.6022 146.65 10.2509C146.389 9.88821 145.953 9.70688 145.341 9.70688C144.672 9.70688 144.139 9.94488 143.743 10.4209C143.346 10.8969 143.148 11.5315 143.148 12.3249V16.4049C143.148 16.8809 142.915 17.1189 142.451 17.1189C141.997 17.1189 141.771 16.8809 141.771 16.4049V11.9169C141.771 11.1575 141.635 10.6022 141.363 10.2509C141.102 9.88821 140.666 9.70688 140.054 9.70688C139.374 9.70688 138.835 9.94488 138.439 10.4209C138.053 10.8969 137.861 11.5315 137.861 12.3249V16.4049C137.861 16.8809 137.628 17.1189 137.164 17.1189ZM153.695 17.1529C153.129 17.1529 152.619 17.0452 152.165 16.8299C151.723 16.6032 151.372 16.2972 151.111 15.9119C150.851 15.5265 150.72 15.0959 150.72 14.6199C150.72 14.0192 150.873 13.5432 151.179 13.1919C151.497 12.8405 152.012 12.5912 152.726 12.4439C153.452 12.2852 154.438 12.2059 155.684 12.2059H156.228V11.6789C156.228 10.9762 156.081 10.4719 155.786 10.1659C155.503 9.84854 155.044 9.68988 154.409 9.68988C154.013 9.68988 153.61 9.74088 153.202 9.84288C152.806 9.94488 152.392 10.1092 151.961 10.3359C151.769 10.4379 151.604 10.4605 151.468 10.4039C151.344 10.3359 151.253 10.2339 151.196 10.0979C151.151 9.95054 151.151 9.80321 151.196 9.65588C151.253 9.49721 151.366 9.37821 151.536 9.29888C152.024 9.04954 152.511 8.86821 152.998 8.75488C153.497 8.64154 153.967 8.58488 154.409 8.58488C155.475 8.58488 156.262 8.84554 156.772 9.36688C157.294 9.88821 157.554 10.6985 157.554 11.7979V16.4049C157.554 16.8809 157.345 17.1189 156.925 17.1189C156.483 17.1189 156.262 16.8809 156.262 16.4049V15.5719C156.047 16.0592 155.713 16.4445 155.259 16.7279C154.817 17.0112 154.296 17.1529 153.695 17.1529ZM153.916 16.1159C154.596 16.1159 155.152 15.8835 155.582 15.4189C156.013 14.9429 156.228 14.3422 156.228 13.6169V13.1069H155.701C154.783 13.1069 154.058 13.1522 153.525 13.2429C153.004 13.3222 152.636 13.4695 152.42 13.6849C152.216 13.8889 152.114 14.1722 152.114 14.5349C152.114 14.9995 152.273 15.3792 152.59 15.6739C152.919 15.9685 153.361 16.1159 153.916 16.1159ZM160.874 6.74888C160.273 6.74888 159.973 6.46554 159.973 5.89888C159.973 5.34354 160.273 5.06588 160.874 5.06588C161.475 5.06588 161.775 5.34354 161.775 5.89888C161.775 6.46554 161.475 6.74888 160.874 6.74888ZM160.874 17.0849C160.421 17.0849 160.194 16.8355 160.194 16.3369V9.38388C160.194 8.89654 160.421 8.65288 160.874 8.65288C161.339 8.65288 161.571 8.89654 161.571 9.38388V16.3369C161.571 16.8355 161.339 17.0849 160.874 17.0849ZM166.746 17.1529C165.93 17.1529 165.307 16.9092 164.876 16.4219C164.445 15.9232 164.23 15.2035 164.23 14.2629V5.59288C164.23 5.12821 164.457 4.89588 164.91 4.89588C165.375 4.89588 165.607 5.12821 165.607 5.59288V14.1609C165.607 15.3735 166.089 15.9799 167.052 15.9799C167.154 15.9799 167.245 15.9742 167.324 15.9629C167.403 15.9515 167.483 15.9459 167.562 15.9459C167.687 15.9345 167.772 15.9629 167.817 16.0309C167.874 16.0989 167.902 16.2349 167.902 16.4389C167.902 16.8242 167.709 17.0452 167.324 17.1019C167.233 17.1245 167.137 17.1359 167.035 17.1359C166.933 17.1472 166.837 17.1529 166.746 17.1529ZM170.174 17.0679C169.891 17.0679 169.664 16.9829 169.494 16.8129C169.324 16.6315 169.239 16.4049 169.239 16.1329C169.239 15.8609 169.324 15.6399 169.494 15.4699C169.664 15.2885 169.891 15.1979 170.174 15.1979C170.458 15.1979 170.679 15.2885 170.837 15.4699C171.007 15.6399 171.092 15.8609 171.092 16.1329C171.092 16.4049 171.007 16.6315 170.837 16.8129C170.679 16.9829 170.458 17.0679 170.174 17.0679ZM176.585 17.1529C175.757 17.1529 175.043 16.9772 174.443 16.6259C173.842 16.2632 173.377 15.7589 173.049 15.1129C172.731 14.4555 172.573 13.6905 172.573 12.8179C172.573 11.5032 172.93 10.4719 173.644 9.72388C174.358 8.96454 175.338 8.58488 176.585 8.58488C176.993 8.58488 177.418 8.65288 177.86 8.78888C178.302 8.91354 178.704 9.12321 179.067 9.41788C179.259 9.55388 179.339 9.72388 179.305 9.92788C179.282 10.1319 179.186 10.2849 179.016 10.3869C178.857 10.4889 178.67 10.4662 178.455 10.3189C178.149 10.0922 177.843 9.93354 177.537 9.84288C177.242 9.75221 176.953 9.70688 176.67 9.70688C175.808 9.70688 175.145 9.97888 174.681 10.5229C174.216 11.0555 173.984 11.8262 173.984 12.8349C173.984 13.8209 174.216 14.6029 174.681 15.1809C175.145 15.7475 175.808 16.0309 176.67 16.0309C176.953 16.0309 177.242 15.9855 177.537 15.8949C177.843 15.8042 178.149 15.6455 178.455 15.4189C178.67 15.2715 178.857 15.2545 179.016 15.3679C179.174 15.4699 179.259 15.6229 179.271 15.8269C179.293 16.0309 179.214 16.1952 179.033 16.3199C178.67 16.6145 178.273 16.8299 177.843 16.9659C177.412 17.0905 176.993 17.1529 176.585 17.1529ZM184.305 17.1529C183.5 17.1529 182.803 16.9772 182.214 16.6259C181.624 16.2745 181.165 15.7815 180.837 15.1469C180.519 14.5009 180.361 13.7415 180.361 12.8689C180.361 11.9962 180.519 11.2425 180.837 10.6079C181.165 9.96188 181.624 9.46321 182.214 9.11188C182.803 8.76054 183.5 8.58488 184.305 8.58488C185.098 8.58488 185.789 8.76054 186.379 9.11188C186.979 9.46321 187.438 9.96188 187.756 10.6079C188.084 11.2425 188.249 11.9962 188.249 12.8689C188.249 13.7415 188.084 14.5009 187.756 15.1469C187.438 15.7815 186.979 16.2745 186.379 16.6259C185.789 16.9772 185.098 17.1529 184.305 17.1529ZM184.305 16.0479C185.075 16.0479 185.693 15.7759 186.158 15.2319C186.622 14.6765 186.855 13.8889 186.855 12.8689C186.855 11.8375 186.622 11.0499 186.158 10.5059C185.693 9.96188 185.075 9.68988 184.305 9.68988C183.523 9.68988 182.899 9.96188 182.435 10.5059C181.981 11.0499 181.755 11.8375 181.755 12.8689C181.755 13.8889 181.981 14.6765 182.435 15.2319C182.899 15.7759 183.523 16.0479 184.305 16.0479ZM191.116 17.1189C190.663 17.1189 190.436 16.8809 190.436 16.4049V9.31588C190.436 8.85121 190.657 8.61888 191.099 8.61888C191.552 8.61888 191.779 8.85121 191.779 9.31588V10.1319C192.028 9.63321 192.374 9.25354 192.816 8.99288C193.258 8.72088 193.774 8.58488 194.363 8.58488C195.655 8.58488 196.482 9.14588 196.845 10.2679C197.094 9.74654 197.463 9.33854 197.95 9.04388C198.437 8.73788 198.998 8.58488 199.633 8.58488C201.469 8.58488 202.387 9.67288 202.387 11.8489V16.4049C202.387 16.8809 202.155 17.1189 201.69 17.1189C201.237 17.1189 201.01 16.8809 201.01 16.4049V11.9169C201.01 11.1575 200.874 10.6022 200.602 10.2509C200.341 9.88821 199.905 9.70688 199.293 9.70688C198.624 9.70688 198.092 9.94488 197.695 10.4209C197.298 10.8969 197.1 11.5315 197.1 12.3249V16.4049C197.1 16.8809 196.868 17.1189 196.403 17.1189C195.95 17.1189 195.723 16.8809 195.723 16.4049V11.9169C195.723 11.1575 195.587 10.6022 195.315 10.2509C195.054 9.88821 194.618 9.70688 194.006 9.70688C193.326 9.70688 192.788 9.94488 192.391 10.4209C192.006 10.8969 191.813 11.5315 191.813 12.3249V16.4049C191.813 16.8809 191.581 17.1189 191.116 17.1189Z" fill="white"/>
<path d="M14.4898 5.81968C14.3522 5.70592 11.2167 3.18443 10.5274 2.63637C9.87981 2.11875 8.77257 0.999878 7.5 0.999878C6.23423 0.999878 5.13762 2.10487 4.47261 2.63637C3.75592 3.2062 0.632666 5.71826 0.513135 5.81652C0.352694 5.94845 0.223469 6.11428 0.134747 6.30209C0.0460237 6.48991 5.89157e-06 6.69504 0 6.90276L0 14.5936C0 15.3703 0.62959 15.9999 1.40625 15.9999H13.5938C14.3704 15.9999 15 15.3703 15 14.5936V6.90346C15 6.69639 14.9543 6.49188 14.8661 6.30454C14.7779 6.11719 14.6494 5.95163 14.4898 5.81968ZM13.5938 14.4178C13.5938 14.4645 13.5752 14.5092 13.5423 14.5421C13.5093 14.5751 13.4646 14.5936 13.418 14.5936H1.58203C1.53541 14.5936 1.4907 14.5751 1.45774 14.5421C1.42477 14.5092 1.40625 14.4645 1.40625 14.4178V6.98661C1.40625 6.93349 1.43016 6.88331 1.47146 6.84994C1.93641 6.47453 4.65876 4.28488 5.34932 3.73588C5.88149 3.31082 6.80854 2.40613 7.5 2.40613C8.19413 2.40613 9.13644 3.32514 9.65068 3.73588C10.3413 4.28494 13.0639 6.47494 13.5286 6.85061C13.549 6.86708 13.5654 6.88789 13.5767 6.91153C13.5879 6.93517 13.5938 6.96103 13.5938 6.98722V14.4178V14.4178ZM12.6565 8.91871C12.781 9.06985 12.758 9.29356 12.6054 9.4162C11.7565 10.0983 10.8688 10.8106 10.5274 11.0821C9.86238 11.6136 8.76577 12.7186 7.5 12.7186C6.22699 12.7186 5.11854 11.5984 4.47261 11.0821C4.14217 10.8194 3.24964 10.1032 2.39467 9.41614C2.24203 9.29347 2.21909 9.06979 2.34354 8.91865L2.79056 8.37584C2.91296 8.22721 3.13207 8.20465 3.28213 8.32527C4.12055 8.99913 4.99793 9.70325 5.34932 9.98262C5.86356 10.3934 6.80587 11.3124 7.5 11.3124C8.19146 11.3124 9.11854 10.4077 9.65068 9.98262C10.0021 9.70328 10.8795 8.99913 11.718 8.32536C11.868 8.20477 12.0871 8.22733 12.2095 8.37595L12.6565 8.91871V8.91871Z" fill="#F24D5D"/>
</svg>
