<svg width="48" height="48" viewBox="0 0 48 48" fill="none" xmlns="http://www.w3.org/2000/svg">
<path d="M24 44C21.2667 44 18.6833 43.4747 16.25 42.424C13.8167 41.3747 11.692 39.9413 9.876 38.124C8.05867 36.308 6.62533 34.1833 5.576 31.75C4.52533 29.3167 4 26.7333 4 24C4 21.2333 4.52533 18.642 5.576 16.226C6.62533 13.8087 8.05867 11.692 9.876 9.876C11.692 8.05867 13.8167 6.62467 16.25 5.574C18.6833 4.52467 21.2667 4 24 4C26.7667 4 29.358 4.52467 31.774 5.574C34.1913 6.62467 36.308 8.05867 38.124 9.876C39.9413 11.692 41.3747 13.8087 42.424 16.226C43.4747 18.642 44 21.2333 44 24C44 26.7333 43.4747 29.3167 42.424 31.75C41.3747 34.1833 39.9413 36.308 38.124 38.124C36.308 39.9413 34.1913 41.3747 31.774 42.424C29.358 43.4747 26.7667 44 24 44ZM31.9 16H37.8C36.8333 14.3333 35.6247 12.8833 34.174 11.65C32.7247 10.4167 31.0667 9.5 29.2 8.9C29.8 10 30.3253 11.1413 30.776 12.324C31.2253 13.508 31.6 14.7333 31.9 16ZM20.2 16H27.8C27.4 14.5333 26.8833 13.15 26.25 11.85C25.6167 10.55 24.8667 9.3 24 8.1C23.1333 9.3 22.3833 10.55 21.75 11.85C21.1167 13.15 20.6 14.5333 20.2 16ZM8.5 28H15.3C15.2 27.3333 15.1247 26.6747 15.074 26.024C15.0247 25.3747 15 24.7 15 24C15 23.3 15.0247 22.6253 15.074 21.976C15.1247 21.3253 15.2 20.6667 15.3 20H8.5C8.33333 20.6667 8.208 21.3253 8.124 21.976C8.04133 22.6253 8 23.3 8 24C8 24.7 8.04133 25.3747 8.124 26.024C8.208 26.6747 8.33333 27.3333 8.5 28ZM18.8 39.1C18.2 38 17.6753 36.858 17.226 35.674C16.7753 34.4913 16.4 33.2667 16.1 32H10.2C11.1667 33.6667 12.3747 35.1167 13.824 36.35C15.2747 37.5833 16.9333 38.5 18.8 39.1ZM10.2 16H16.1C16.4 14.7333 16.7753 13.508 17.226 12.324C17.6753 11.1413 18.2 10 18.8 8.9C16.9333 9.5 15.2747 10.4167 13.824 11.65C12.3747 12.8833 11.1667 14.3333 10.2 16ZM24 39.9C24.8667 38.7 25.6167 37.45 26.25 36.15C26.8833 34.85 27.4 33.4667 27.8 32H20.2C20.6 33.4667 21.1167 34.85 21.75 36.15C22.3833 37.45 23.1333 38.7 24 39.9ZM19.3 28H28.7C28.8 27.3333 28.8753 26.6747 28.926 26.024C28.9753 25.3747 29 24.7 29 24C29 23.3 28.9753 22.6253 28.926 21.976C28.8753 21.3253 28.8 20.6667 28.7 20H19.3C19.2 20.6667 19.1253 21.3253 19.076 21.976C19.0253 22.6253 19 23.3 19 24C19 24.7 19.0253 25.3747 19.076 26.024C19.1253 26.6747 19.2 27.3333 19.3 28ZM29.2 39.1C31.0667 38.5 32.7247 37.5833 34.174 36.35C35.6247 35.1167 36.8333 33.6667 37.8 32H31.9C31.6 33.2667 31.2253 34.4913 30.776 35.674C30.3253 36.858 29.8 38 29.2 39.1ZM32.7 28H39.5C39.6667 27.3333 39.792 26.6747 39.876 26.024C39.9587 25.3747 40 24.7 40 24C40 23.3 39.9587 22.6253 39.876 21.976C39.792 21.3253 39.6667 20.6667 39.5 20H32.7C32.8 20.6667 32.8747 21.3253 32.924 21.976C32.9747 22.6253 33 23.3 33 24C33 24.7 32.9747 25.3747 32.924 26.024C32.8747 26.6747 32.8 27.3333 32.7 28Z" fill="#2D3232"/>
</svg>
