<svg width="160" height="37" viewBox="0 0 160 37" fill="none" xmlns="http://www.w3.org/2000/svg">
<g clip-path="url(#clip0_112_1655)">
<path d="M56.8224 35.2002L60.4064 27.3602H61.224L64.808 35.2002H63.9344L60.6416 27.8418H60.9776L57.6848 35.2002H56.8224ZM58.2336 33.1058L58.48 32.4338H63.0384L63.2848 33.1058H58.2336ZM75.0003 35.2674C74.4105 35.2674 73.8654 35.1703 73.3651 34.9762C72.8649 34.7746 72.4318 34.4946 72.0659 34.1362C71.7001 33.7778 71.4126 33.3559 71.2035 32.8706C71.0019 32.3852 70.9011 31.8551 70.9011 31.2802C70.9011 30.7052 71.0019 30.1751 71.2035 29.6898C71.4126 29.2044 71.7001 28.7826 72.0659 28.4242C72.4393 28.0658 72.8761 27.7895 73.3763 27.5954C73.8766 27.3938 74.4217 27.293 75.0115 27.293C75.579 27.293 76.1129 27.39 76.6131 27.5842C77.1134 27.7708 77.5353 28.0546 77.8787 28.4354L77.3523 28.9618C77.0313 28.6332 76.6766 28.398 76.2883 28.2562C75.9001 28.1068 75.4819 28.0322 75.0339 28.0322C74.5635 28.0322 74.1267 28.1143 73.7235 28.2786C73.3203 28.4354 72.9694 28.6631 72.6707 28.9618C72.3721 29.253 72.1369 29.5964 71.9651 29.9922C71.8009 30.3804 71.7187 30.8098 71.7187 31.2802C71.7187 31.7506 71.8009 32.1836 71.9651 32.5794C72.1369 32.9676 72.3721 33.3111 72.6707 33.6098C72.9694 33.901 73.3203 34.1287 73.7235 34.293C74.1267 34.4498 74.5635 34.5282 75.0339 34.5282C75.4819 34.5282 75.9001 34.4535 76.2883 34.3042C76.6766 34.1548 77.0313 33.9159 77.3523 33.5874L77.8787 34.1138C77.5353 34.4946 77.1134 34.782 76.6131 34.9762C76.1129 35.1703 75.5753 35.2674 75.0003 35.2674ZM83.7944 35.2002L87.3784 27.3602H88.196L91.78 35.2002H90.9064L87.6136 27.8418H87.9496L84.6568 35.2002H83.7944ZM85.2056 33.1058L85.452 32.4338H90.0104L90.2568 33.1058H85.2056ZM98.6768 35.2002V27.3602H101.869C102.705 27.3602 103.437 27.5282 104.064 27.8642C104.698 28.1927 105.191 28.6519 105.542 29.2418C105.894 29.8316 106.069 30.5111 106.069 31.2802C106.069 32.0492 105.894 32.7287 105.542 33.3186C105.191 33.9084 104.698 34.3714 104.064 34.7074C103.437 35.0359 102.705 35.2002 101.869 35.2002H98.6768ZM99.5056 34.4834H101.824C102.518 34.4834 103.119 34.349 103.627 34.0802C104.142 33.8039 104.542 33.4268 104.826 32.949C105.11 32.4636 105.251 31.9074 105.251 31.2802C105.251 30.6455 105.11 30.0892 104.826 29.6114C104.542 29.1335 104.142 28.7602 103.627 28.4914C103.119 28.2151 102.518 28.077 101.824 28.077H99.5056V34.4834ZM114.269 30.8658H118.413V31.5714H114.269V30.8658ZM114.358 34.4834H119.074V35.2002H113.53V27.3602H118.906V28.077H114.358V34.4834ZM126.622 35.2002V27.3602H127.306L130.89 33.4754H130.531L134.082 27.3602H134.765V35.2002H133.97V28.6034H134.16L130.89 34.2034H130.498L127.205 28.6034H127.418V35.2002H126.622ZM144.79 35.2002V32.2882L144.98 32.8034L141.654 27.3602H142.538L145.462 32.1426H144.991L147.914 27.3602H148.743L145.417 32.8034L145.607 32.2882V35.2002H144.79Z" fill="#E6F0F0"/>
<path fill-rule="evenodd" clip-rule="evenodd" d="M129.098 9.95493C128.415 8.81557 127.368 7.92786 126.112 7.42925C123.454 6.42294 120.458 7.59061 119.236 10.1119H119.187C119.158 10.0594 119.138 10.0025 119.11 9.95493C118.426 8.81557 117.374 7.92786 116.122 7.42925C114.033 6.622 111.651 7.17274 110.148 8.80605V7.34391H106.851V22.1185H110.148V13.1932C110.609 11.8685 111.73 10.8667 113.116 10.5343C114.294 10.3872 115.463 10.8713 116.176 11.8018C116.574 12.3146 116.778 12.9415 116.754 13.5821V22.1185H120.05V13.5821C120.05 13.5729 120.05 13.5634 120.05 13.5538V13.3685C120.482 11.9585 121.646 10.8855 123.106 10.5438C124.284 10.3918 125.453 10.8809 126.166 11.8114C126.563 12.3193 126.766 12.9507 126.742 13.5872V22.1281H130.04V13.5821C130.083 12.31 129.758 11.0517 129.098 9.95493ZM48 22.3988H51.3303V14.3973H54.5748C55.0167 14.3973 55.4578 14.3654 55.8943 14.3014C56.3298 14.2374 56.7593 14.1408 57.1795 14.0135C57.5934 13.8885 57.997 13.7296 58.3827 13.5344C58.7606 13.3431 59.1189 13.1173 59.4547 12.8608C59.7922 12.6025 60.097 12.3094 60.3671 11.9836C60.6446 11.6482 60.8823 11.2838 61.0814 10.8987C61.2939 10.4875 61.4454 10.0505 61.5446 9.60045C61.6524 9.11069 61.6988 8.60973 61.6988 8.10925C61.6988 7.73899 61.6647 7.36962 61.5998 7.0046C61.5331 6.63195 61.4327 6.26596 61.3047 5.90918C61.173 5.54247 60.9986 5.1926 60.786 4.86383C60.5669 4.52513 60.3102 4.21261 60.023 3.92663C59.7181 3.62295 59.3772 3.35685 59.0122 3.12567C58.6174 2.87606 58.194 2.66962 57.7593 2.49553C57.2669 2.2983 56.7486 2.16482 56.2244 2.07936C55.6195 1.9808 55.0042 1.94092 54.3919 1.94092H48V22.3988ZM56.1301 5.20146C56.3605 5.28789 56.5849 5.39203 56.7946 5.51968C56.9812 5.63351 57.1564 5.76601 57.3082 5.92131L57.3142 5.92761C57.4571 6.07199 57.5841 6.23129 57.6892 6.40404C57.7932 6.57521 57.8754 6.75789 57.9361 6.94786C57.9987 7.14377 58.0458 7.34391 58.0775 7.54697C58.1092 7.75281 58.1246 7.96084 58.1246 8.16925C58.1246 8.65405 58.0573 9.14861 57.8664 9.59877C57.6982 9.99541 57.4426 10.3345 57.1022 10.6056C56.7425 10.8914 56.3309 11.0946 55.8886 11.2271C55.3774 11.3801 54.8338 11.4353 54.3002 11.4353H51.3303V4.903H54.1787C54.5323 4.903 54.892 4.92021 55.2422 4.9733C55.5356 5.0178 55.827 5.08641 56.1042 5.19128L56.1261 5.19952L56.1301 5.20146ZM101.387 7.34852C100.286 7.68092 99.2872 8.27909 98.4824 9.09093C98.3992 9.17181 98.3416 9.28085 98.2584 9.36621V7.34852H94.9616V22.1281H98.2584V13.1932C98.6808 12.3242 99.3456 11.5882 100.175 11.0754C100.752 10.7193 101.411 10.5151 102.09 10.4821C102.706 10.4913 103.317 10.5485 103.923 10.6529L104.917 7.36767C103.778 6.95441 102.526 6.9498 101.387 7.34852ZM92.5904 14.1283C92.5616 13.0316 92.3288 11.9538 91.892 10.9474C91.4128 9.84565 90.6272 8.89637 89.6224 8.20789C88.624 7.54806 87.46 7.16353 86.2528 7.10158C83.9984 6.91659 81.7864 7.76627 80.2544 9.39957L81.9856 11.3982C83.188 10.7101 84.5848 10.406 85.9768 10.5297C87.184 10.5772 88.2608 11.2749 88.784 12.3433C88.8616 12.5284 88.9296 12.7136 88.9872 12.9081C87.6544 12.2197 86.1416 11.9301 84.6384 12.0867C83.324 12.1721 82.0728 12.6896 81.088 13.5538C80.012 14.5698 79.4736 16.0082 79.614 17.4611C79.7454 18.914 80.492 20.2482 81.6704 21.1359C82.7424 21.9477 84.056 22.3846 85.4088 22.3893C86.8496 22.3988 88.236 21.8574 89.2784 20.8889V22.1185H92.576V16.8772L92.5904 14.1283ZM85.6128 18.9282C84.308 18.6671 83.0576 18.045 82.9216 17.1049C82.8048 16.6067 82.936 16.0845 83.2704 15.6903C83.7504 15.2201 84.372 14.9118 85.04 14.8025C86.5104 14.4749 88.052 14.7785 89.2784 15.6428V17.8648C88.2656 18.7003 86.9416 19.0898 85.6224 18.9282H85.6128ZM77.6174 12.6945C77.3507 11.389 76.735 10.1735 75.8331 9.17637C74.8968 8.15573 73.6509 7.45762 72.2787 7.17771C70.0869 6.75498 67.8364 7.55267 66.4306 9.24757V1.94092H63.1333V22.1093H66.4306V13.8813C66.8859 12.3813 68.0402 11.1845 69.5434 10.6529C70.8629 10.2923 72.2787 10.6481 73.2532 11.5882C73.7819 12.0631 74.1602 12.6804 74.3397 13.364C74.4509 14.2516 74.4848 15.1537 74.4414 16.0511V22.1139H77.7337V16.0561C77.7778 14.9306 77.739 13.8101 77.6174 12.6945Z" fill="#E6F0F0"/>
<path fill-rule="evenodd" clip-rule="evenodd" d="M135.907 22.1363V2.21952H132.406V22.1363H135.907ZM157.762 17.4311C160.658 12.8499 159.489 6.86278 155.071 3.64867C150.658 0.434564 144.466 1.06604 140.82 5.09662C137.173 9.12754 137.284 15.2234 141.081 19.126C144.873 23.0241 151.086 23.4323 155.377 20.0662C155.581 20.3369 155.798 20.5931 156.041 20.8355C157.006 21.6949 158.223 22.2359 159.518 22.3831L159.998 19.5963C158.931 19.2876 158.087 18.4758 157.762 17.4311ZM148.957 18.7131C145.717 18.6894 142.948 16.4247 142.342 13.3102C141.736 10.1955 143.467 7.09555 146.469 5.91345C149.47 4.72627 152.914 5.78519 154.683 8.43898C156.458 11.0929 156.066 14.6015 153.752 16.8187C152.467 18.0437 150.746 18.7227 148.951 18.7082L148.957 18.7131Z" fill="#E6F0F0"/>
<path fill-rule="evenodd" clip-rule="evenodd" d="M4.89567 36.799H29.7046C31.0484 36.799 32.2687 36.2544 33.153 35.3769C34.0374 34.4994 34.5865 33.2882 34.5865 31.9549C34.5865 30.6215 34.0374 29.4102 33.153 28.5328C32.2687 27.6554 31.0484 27.1107 29.7046 27.1107H11.5814H10.3506C9.86069 27.1105 9.46373 26.7162 9.46373 26.2301C9.46373 26.1298 9.48037 26.0334 9.51133 25.9438L9.09973 26.6511C9.00669 26.8117 8.90501 26.9648 8.79645 27.1107H4.89567V29.074H10.2613H29.7046C30.5022 29.074 31.2279 29.3982 31.7545 29.9211C32.281 30.4435 32.6081 31.1635 32.6081 31.9549C32.6076 32.7462 32.281 33.4663 31.7545 33.9888C31.2279 34.5114 30.5022 34.8357 29.7046 34.8357H4.89567C4.34961 34.8357 3.90625 35.2753 3.90625 35.8173C3.90625 36.3596 4.34961 36.799 4.89567 36.799ZM6.88183 32.9366C6.60868 32.9366 6.36142 32.8264 6.18229 32.6489C6.00353 32.4714 5.89241 32.226 5.89241 31.9549C5.89241 31.6839 6.00353 31.4383 6.18229 31.2608L6.18303 31.2613C6.36227 31.0833 6.60978 30.9733 6.88183 30.9733H28.7923C29.0644 30.9733 29.3111 31.083 29.4906 31.2608L29.4919 31.2617C29.6705 31.4397 29.7818 31.685 29.7818 31.9549C29.7818 32.2249 29.6705 32.4705 29.4914 32.6484L29.4919 32.6489C29.3128 32.8264 29.0655 32.9366 28.7923 32.9366H6.88183Z" fill="#E6F0F0"/>
<path fill-rule="evenodd" clip-rule="evenodd" d="M14.7692 1.47244L2.36454 22.7939C1.96599 23.4791 1.88589 24.2652 2.07906 24.979C2.27137 25.6929 2.73635 26.3338 3.4271 26.7295C4.11736 27.125 4.90945 27.2039 5.6289 27.0128C6.3481 26.8215 6.99415 26.3601 7.39271 25.6747L17.1142 8.96488L19.7973 4.35358L21.5105 5.33522L19.5602 8.68736C19.6328 8.85376 19.7165 9.01744 19.8093 9.178L20.2211 9.88544C20.1581 9.81392 20.0829 9.75112 19.9956 9.70112C19.571 9.45792 19.0282 9.60224 18.7832 10.0233L18.1679 11.081L9.10621 26.6567C8.43437 27.8111 7.34875 28.5878 6.14076 28.9088C4.93278 29.2303 3.60123 29.0963 2.43768 28.4296C1.27439 27.763 0.49169 26.6857 0.168112 25.4869C-0.15571 24.2883 -0.0206613 22.967 0.651162 21.8123L13.0557 0.490815C13.3286 0.0213889 13.934 -0.139407 14.407 0.131779C14.8801 0.402602 15.0421 1.00302 14.7692 1.47244ZM15.4335 4.12893C15.57 3.89421 15.7897 3.73694 16.034 3.67174C16.2785 3.60667 16.5483 3.6343 16.7848 3.76989C17.0213 3.90512 17.18 4.12312 17.2455 4.36583L17.2449 4.36606C17.3102 4.60926 17.2828 4.8767 17.1466 5.11056L6.19144 23.9412C6.05529 24.1748 5.83623 24.3321 5.59141 24.3975L5.59007 24.3978C5.34525 24.4627 5.07552 24.4354 4.8401 24.3002C4.60468 24.1652 4.44583 23.9473 4.37989 23.7041L4.37964 23.7043C4.31371 23.4616 4.34155 23.1939 4.47818 22.9596L15.4335 4.12893Z" fill="#E6F0F0"/>
<path fill-rule="evenodd" clip-rule="evenodd" d="M38.9537 26.6377L26.5491 5.31636C26.1506 4.63112 25.5041 4.16956 24.7851 3.97848C24.0659 3.78714 23.2738 3.86627 22.5835 4.2619C21.893 4.6574 21.4281 5.29854 21.2355 6.01225C21.0425 6.72621 21.1224 7.51191 21.5209 8.19718L31.2425 24.9071L33.9255 29.5186L32.2121 30.5002L30.2619 27.1478C30.0801 27.1273 29.8957 27.1171 29.7089 27.1171H28.8856C28.9799 27.0986 29.0723 27.0652 29.1593 27.0149C29.5842 26.7717 29.7293 26.2335 29.4845 25.8121L28.869 24.7545L19.8073 9.17878C19.1354 8.02414 19.0007 6.70282 19.3243 5.50429C19.6481 4.30576 20.4308 3.22816 21.5941 2.56147C22.7579 1.89501 24.0891 1.76112 25.2969 2.08223C26.5052 2.40333 27.5905 3.17995 28.2625 4.33473L40.6668 25.6561C40.94 26.1255 40.7781 26.7261 40.305 26.9971C39.832 27.2681 39.2265 27.1071 38.9537 26.6377ZM36.303 25.8805C36.4399 26.1152 36.4675 26.3826 36.4016 26.6253C36.3364 26.868 36.1776 27.0859 35.9411 27.2215C35.7045 27.357 35.4351 27.3844 35.1906 27.3193L35.1909 27.3189C34.9456 27.2537 34.7259 27.096 34.5897 26.8621L23.6346 8.03182C23.4989 7.79787 23.471 7.5308 23.5361 7.28785L23.5365 7.28652C23.6025 7.04356 23.7613 6.82581 23.9964 6.69083C24.2325 6.55584 24.5019 6.52845 24.7473 6.59352V6.5928C24.9918 6.65787 25.2113 6.81552 25.3477 7.05023L36.303 25.8805Z" fill="#E6F0F0"/>
</g>
<defs>
<clipPath id="clip0_112_1655">
<rect width="160" height="36.8" fill="white"/>
</clipPath>
</defs>
</svg>
