<svg width="133" height="133" viewBox="0 0 133 133" fill="none" xmlns="http://www.w3.org/2000/svg">
<g clip-path="url(#clip0_304_1836)">
<path d="M66.5 66.5C66.5 57.767 64.7799 49.1197 61.438 41.0515C58.0961 32.9834 53.1977 25.6525 47.0226 19.4774C40.8475 13.3023 33.5166 8.40394 25.4484 5.06201C17.3803 1.72007 8.7329 -3.82375e-07 0 0L3.96371e-06 66.5H66.5Z" fill="#4B96DC"/>
<path d="M66.5 133C66.5 124.268 64.7799 115.619 61.438 107.552C58.0961 99.4835 53.1977 92.1526 47.0226 85.9774C40.8475 79.8024 33.5166 74.904 25.4484 71.5621C17.3803 68.2202 8.73291 66.5 0 66.5L2.90681e-06 133H66.5Z" fill="#4DB1B1"/>
<path d="M133 66.5C133 57.767 131.28 49.1197 127.938 41.0515C124.596 32.9834 119.698 25.6525 113.523 19.4774C107.348 13.3023 100.017 8.40394 91.9484 5.06201C83.8803 1.72007 75.2329 -3.82375e-07 66.5 0V66.5H133Z" fill="#F0B4AA"/>
<path d="M133 133C133 124.268 131.28 115.619 127.938 107.552C124.596 99.4835 119.698 92.1526 113.523 85.9774C107.348 79.8024 100.017 74.904 91.9484 71.5621C83.8803 68.2202 75.2329 66.5 66.5 66.5V133H133Z" fill="#96D2F5"/>
</g>
<defs>
<clipPath id="clip0_304_1836">
<rect width="133" height="133" fill="white"/>
</clipPath>
</defs>
</svg>
