<svg width="131" height="40" viewBox="0 0 131 40" fill="none" xmlns="http://www.w3.org/2000/svg">
<path d="M20.2449 0C9.06421 0 0 8.95424 0 19.9996C0 31.0462 9.06421 40 20.2449 40C31.4262 40 40.4899 31.0462 40.4899 19.9996C40.4899 8.95495 31.4269 0 20.2449 0ZM29.5291 28.8452C29.1656 29.4344 28.3886 29.619 27.7941 29.26C23.0401 26.3896 17.0562 25.7412 10.0092 27.3315C9.33012 27.4854 8.65322 27.0648 8.49851 26.3941C8.34306 25.7233 8.76684 25.0546 9.44761 24.9017C17.1595 23.16 23.7745 23.9097 29.1107 27.1309C29.7054 27.4916 29.8942 28.2577 29.5291 28.8452ZM32.0071 23.4003C31.5492 24.1342 30.5779 24.3644 29.8359 23.9137C24.3953 20.6098 16.0991 19.6529 9.66254 21.5831C8.82776 21.8321 7.9461 21.3674 7.69275 20.5442C7.44133 19.7195 7.91202 18.8502 8.74533 18.5994C16.0977 16.3955 25.2378 17.4631 31.4871 21.2568C32.2293 21.7082 32.464 22.668 32.0071 23.4003ZM32.2198 17.7296C25.694 13.901 14.9298 13.549 8.7001 15.4168C7.69975 15.7165 6.64185 15.1587 6.33869 14.1704C6.03553 13.1817 6.59978 12.1373 7.60087 11.8368C14.7521 9.69221 26.6402 10.1066 34.1524 14.5122C35.0522 15.0397 35.3474 16.1877 34.814 17.0755C34.2822 17.9644 33.1167 18.2574 32.2198 17.7296ZM55.0798 18.4633C51.5843 17.6398 50.962 17.0619 50.962 15.8474C50.962 14.7001 52.0555 13.928 53.6815 13.928C55.2577 13.928 56.8206 14.5143 58.4592 15.7213C58.5088 15.7579 58.5709 15.7724 58.6321 15.7629C58.6932 15.7538 58.7474 15.7206 58.7832 15.6707L60.4899 13.2939C60.56 13.196 60.5409 13.0611 60.4464 12.9863C58.4962 11.4404 56.3002 10.6888 53.7333 10.6888C49.959 10.6888 47.3227 12.9264 47.3227 16.1278C47.3227 19.5609 49.5969 20.7765 53.5268 21.7149C56.8717 22.476 57.4362 23.1137 57.4362 24.2536C57.4362 25.5167 56.2946 26.302 54.4575 26.302C52.4172 26.302 50.753 25.623 48.8912 24.0303C48.8451 23.9909 48.7817 23.973 48.7232 23.9763C48.6616 23.9813 48.6052 24.0095 48.5661 24.0561L46.6524 26.306C46.5721 26.3994 46.5823 26.5389 46.6751 26.6196C48.8412 28.53 51.5053 29.539 54.3802 29.539C58.4472 29.539 61.0752 27.3437 61.0752 23.946C61.0825 21.0777 59.3443 19.4895 55.0871 18.4664L55.0798 18.4633ZM70.2763 15.0576C68.5134 15.0576 67.0675 15.7435 65.8752 17.149V15.567C65.8752 15.4421 65.7727 15.3404 65.6465 15.3404H62.5165C62.3901 15.3404 62.2878 15.4421 62.2878 15.567V33.145C62.2878 33.2699 62.3901 33.3716 62.5165 33.3716H65.6465C65.7727 33.3716 65.8752 33.2699 65.8752 33.145V27.5964C67.0677 28.9185 68.5139 29.5646 70.2763 29.5646C73.5517 29.5646 76.8676 27.0736 76.8676 22.3119C76.8724 17.5491 73.5556 15.0574 70.2799 15.0574L70.2763 15.0576ZM73.228 22.3119C73.228 24.7367 71.7161 26.4288 69.5512 26.4288C67.411 26.4288 65.7966 24.6598 65.7966 22.3119C65.7966 19.9643 67.411 18.1951 69.5512 18.1951C71.6811 18.1948 73.228 19.9261 73.228 22.3119ZM85.3664 15.0576C81.148 15.0576 77.8433 18.2665 77.8433 22.3637C77.8433 26.4164 81.1253 29.5915 85.3146 29.5915C89.5479 29.5915 92.8628 26.3934 92.8628 22.3119C92.8628 18.2445 89.5704 15.0576 85.3664 15.0576ZM85.3664 26.4529C83.1226 26.4529 81.4311 24.672 81.4311 22.3107C81.4311 19.9394 83.0642 18.2187 85.3146 18.2187C87.5728 18.2187 89.2757 19.9996 89.2757 22.3625C89.2757 24.7334 87.6316 26.4529 85.3664 26.4529ZM101.871 15.3404H98.4264V11.8617C98.4264 11.737 98.3244 11.6353 98.198 11.6353H95.0685C94.9419 11.6353 94.8391 11.737 94.8391 11.8617V15.3404H93.3342C93.2083 15.3404 93.1062 15.4421 93.1062 15.5671V18.2245C93.1062 18.3491 93.2083 18.4511 93.3342 18.4511H94.8391V25.3271C94.8391 28.1058 96.2391 29.5146 99.0001 29.5146C100.123 29.5146 101.054 29.2856 101.932 28.7939C102.003 28.7545 102.048 28.6785 102.048 28.5978V26.0672C102.048 25.9891 102.007 25.9153 101.939 25.8745C101.871 25.8322 101.786 25.8301 101.716 25.8642C101.113 26.1639 100.53 26.3022 99.8786 26.3022C98.8744 26.3022 98.4264 25.8518 98.4264 24.8423V18.4523H101.871C101.997 18.4523 102.099 18.3506 102.099 18.2257V15.5685C102.104 15.4436 102.002 15.3419 101.874 15.3419L101.871 15.3404ZM113.871 15.354V14.9268C113.871 13.6698 114.359 13.1093 115.453 13.1093C116.106 13.1093 116.63 13.2373 117.217 13.4308C117.289 13.4532 117.365 13.442 117.423 13.3992C117.484 13.3565 117.518 13.2879 117.518 13.2153V10.6098C117.518 10.5102 117.453 10.422 117.356 10.3927C116.736 10.2104 115.942 10.0234 114.754 10.0234C111.863 10.0234 110.335 11.6317 110.335 14.6726V15.327H108.832C108.705 15.327 108.602 15.4288 108.602 15.5534V18.2244C108.602 18.3491 108.705 18.4511 108.832 18.4511H110.335V29.057C110.335 29.1819 110.437 29.2837 110.564 29.2837H113.694C113.82 29.2837 113.923 29.1819 113.923 29.057V18.4518H116.845L121.322 29.0551C120.814 30.1693 120.314 30.3909 119.632 30.3909C119.08 30.3909 118.5 30.2282 117.906 29.9073C117.85 29.8769 117.784 29.8719 117.724 29.8903C117.664 29.9111 117.614 29.955 117.588 30.0123L116.527 32.3115C116.477 32.4202 116.52 32.5477 116.626 32.6041C117.733 33.1966 118.733 33.4495 119.969 33.4495C122.28 33.4495 123.557 32.386 124.683 29.5249L130.113 15.6635C130.141 15.5938 130.132 15.515 130.089 15.4531C130.046 15.3917 129.977 15.3547 129.901 15.3547H126.642C126.545 15.3547 126.457 15.4161 126.426 15.5066L123.088 24.9254L119.432 15.5004C119.398 15.4128 119.313 15.3547 119.218 15.3547L113.871 15.354ZM106.914 15.3404H103.784C103.657 15.3404 103.554 15.4421 103.554 15.5671V29.057C103.554 29.1819 103.657 29.2837 103.784 29.2837H106.914C107.04 29.2837 107.143 29.1819 107.143 29.057V15.568C107.143 15.5382 107.137 15.5087 107.126 15.4811C107.114 15.4536 107.097 15.4286 107.076 15.4075C107.055 15.3864 107.029 15.3698 107.001 15.3584C106.973 15.347 106.944 15.3403 106.914 15.3404ZM105.366 9.19809C104.126 9.19809 103.12 10.1897 103.12 11.4146C103.12 12.6403 104.127 13.6331 105.366 13.6331C106.606 13.6331 107.611 12.6403 107.611 11.4146C107.611 10.1899 106.605 9.19809 105.368 9.19809H105.366Z" fill="#2D3232"/>
</svg>
