<svg width="35" height="35" viewBox="0 0 35 35" fill="none" xmlns="http://www.w3.org/2000/svg">
<circle opacity="0.1" cx="17.5" cy="17.4999" r="17.5" fill="white"/>
<path d="M22.5609 14.8336C22.5698 14.958 22.5698 15.0824 22.5698 15.2067C22.5698 18.9999 19.6828 23.3705 14.4061 23.3705C12.7805 23.3705 11.2703 22.8996 10 22.0824C10.231 22.109 10.453 22.1179 10.6929 22.1179C12.0342 22.1179 13.269 21.6649 14.2551 20.892C12.9937 20.8654 11.9365 20.0392 11.5723 18.9022C11.75 18.9288 11.9277 18.9466 12.1142 18.9466C12.3718 18.9466 12.6295 18.911 12.8693 18.8489C11.5546 18.5824 10.5685 17.4276 10.5685 16.0329V15.9974C10.9505 16.2106 11.3947 16.3438 11.8655 16.3616C11.0926 15.8463 10.5863 14.9669 10.5863 13.9719C10.5863 13.439 10.7284 12.9504 10.9771 12.524C12.3896 14.2651 14.5127 15.4021 16.8934 15.5265C16.849 15.3133 16.8223 15.0913 16.8223 14.8692C16.8223 13.2879 18.1015 11.9999 19.6916 11.9999C20.5178 11.9999 21.2639 12.3463 21.7881 12.906C22.4365 12.7816 23.0584 12.5418 23.6091 12.2131C23.3959 12.8793 22.9429 13.439 22.3477 13.7943C22.9251 13.7321 23.4848 13.5722 24 13.3501C23.6092 13.9187 23.1206 14.425 22.5609 14.8336Z" fill="white"/>
</svg>
