<svg width="88" height="28" viewBox="0 0 88 28" fill="none" xmlns="http://www.w3.org/2000/svg">
<path d="M33.4107 0.498518L21.89 27.5773H14.3733L8.70467 5.96413C8.36 4.63476 8.063 4.14708 7.01433 3.58715C5.30567 2.6732 2.48233 1.81706 0 1.28242L0.168667 0.498518H12.2687C13.0594 0.497737 13.8243 0.775464 14.4254 1.28157C15.0265 1.78767 15.4242 2.4888 15.5467 3.25842L18.5423 18.9292L25.9417 0.498518H33.4107ZM62.865 18.7377C62.8943 11.5887 52.833 11.1949 52.9027 8.00155C52.9247 7.0298 53.8633 5.99665 55.9167 5.73294C58.3231 5.50778 60.7465 5.92714 62.931 6.94672L64.1777 1.20294C62.0509 0.415233 59.7984 0.00786289 57.5263 0C50.4973 0 45.551 3.68469 45.507 8.95523C45.463 12.8531 49.038 15.0241 51.733 16.3246C54.505 17.6504 55.4363 18.5029 55.4217 19.6878C55.4033 21.5085 53.2143 22.3068 51.1683 22.3393C47.5933 22.3935 45.5217 21.3892 43.8643 20.6306L42.5773 26.5623C44.2383 27.3136 47.3037 27.9711 50.4827 28C57.9517 28 62.8393 24.3659 62.865 18.7377ZM81.422 27.5773H88L82.2617 0.498518H76.1897C75.5409 0.492595 74.9053 0.678845 74.3652 1.03312C73.8252 1.38739 73.4056 1.89334 73.161 2.48536L62.4947 27.5773H69.96L71.445 23.5314H80.5677L81.422 27.5773ZM73.491 17.9827L77.231 7.8137L79.387 17.9827H73.491ZM43.571 0.498518L37.6933 27.5773H30.58L36.465 0.498518H43.571Z" fill="#FF4500"/>
</svg>
