<svg width="15" height="15" viewBox="0 0 15 15" fill="none" xmlns="http://www.w3.org/2000/svg">
<path d="M14.4898 4.81968C14.3522 4.70592 11.2167 2.18443 10.5274 1.63637C9.87981 1.11875 8.77257 -0.00012207 7.5 -0.00012207C6.23423 -0.00012207 5.13762 1.10487 4.47261 1.63637C3.75592 2.2062 0.632666 4.71826 0.513135 4.81652C0.352694 4.94845 0.223469 5.11428 0.134747 5.30209C0.0460237 5.48991 5.89157e-06 5.69504 0 5.90276L0 13.5936C0 14.3703 0.62959 14.9999 1.40625 14.9999H13.5938C14.3704 14.9999 15 14.3703 15 13.5936V5.90346C15 5.69639 14.9543 5.49188 14.8661 5.30453C14.7779 5.11719 14.6494 4.95163 14.4898 4.81968ZM13.5938 13.4178C13.5938 13.4645 13.5752 13.5092 13.5423 13.5421C13.5093 13.5751 13.4646 13.5936 13.418 13.5936H1.58203C1.53541 13.5936 1.4907 13.5751 1.45774 13.5421C1.42477 13.5092 1.40625 13.4645 1.40625 13.4178V5.98661C1.40625 5.93349 1.43016 5.88331 1.47146 5.84994C1.93641 5.47453 4.65876 3.28488 5.34932 2.73588C5.88149 2.31082 6.80854 1.40613 7.5 1.40613C8.19413 1.40613 9.13644 2.32514 9.65068 2.73588C10.3413 3.28494 13.0639 5.47494 13.5286 5.85061C13.549 5.86708 13.5654 5.88789 13.5767 5.91153C13.5879 5.93517 13.5938 5.96103 13.5938 5.98722V13.4178ZM12.6565 7.91871C12.781 8.06985 12.758 8.29356 12.6054 8.4162C11.7565 9.09832 10.8688 9.81064 10.5274 10.0821C9.86238 10.6136 8.76577 11.7186 7.5 11.7186C6.22699 11.7186 5.11854 10.5984 4.47261 10.0821C4.14217 9.8194 3.24964 9.10321 2.39467 8.41614C2.24203 8.29347 2.21909 8.06979 2.34354 7.91865L2.79056 7.37583C2.91296 7.22721 3.13207 7.20465 3.28213 7.32527C4.12055 7.99913 4.99793 8.70325 5.34932 8.98262C5.86356 9.39336 6.80587 10.3124 7.5 10.3124C8.19146 10.3124 9.11854 9.40769 9.65068 8.98262C10.0021 8.70328 10.8795 7.99913 11.718 7.32536C11.868 7.20477 12.0871 7.22733 12.2095 7.37595L12.6565 7.91871Z" fill="#F24D5D"/>
</svg>
