<svg xmlns="http://www.w3.org/2000/svg" xmlns:xlink="http://www.w3.org/1999/xlink" viewBox="0,0,256,256" width="16px" height="16px" fill-rule="nonzero"><g fill="#157b88" fill-rule="nonzero" stroke="none" stroke-width="1" stroke-linecap="butt" stroke-linejoin="miter" stroke-miterlimit="10" stroke-dasharray="" stroke-dashoffset="0" font-family="none" font-weight="none" font-size="none" text-anchor="none" style="mix-blend-mode: normal"><path d="M0,256v-256h256v256z" id="bgRectangle"></path></g><g fill="none" fill-rule="nonzero" stroke="none" stroke-width="1" stroke-linecap="butt" stroke-linejoin="miter" stroke-miterlimit="10" stroke-dasharray="" stroke-dashoffset="0" font-family="none" font-weight="none" font-size="none" text-anchor="none" style="mix-blend-mode: normal"><g transform="scale(16,16)"><path d="M8,0c-4.418,0 -8,3.582 -8,8c0,4.418 3.582,8 8,8c4.418,0 8,-3.582 8,-8c0,-4.418 -3.582,-8 -8,-8z" fill="#157b88"></path><path d="M9.082,10.12h2.071l0.326,-2.104h-2.397v-1.148c0,-0.875 0.286,-1.65 1.104,-1.65h1.312v-1.835c-0.23,-0.03 -0.719,-0.099 -1.641,-0.099c-1.924,0 -3.054,1.016 -3.054,3.334v1.398h-1.979v2.104h1.979v5.781c0.393,0.06 0.789,0.099 1.197,0.099c0.368,0 0.729,-0.033 1.082,-0.082z" fill="#ffffff"></path></g></g></svg>