<svg width="88" height="114" viewBox="0 0 88 114" fill="none" xmlns="http://www.w3.org/2000/svg">
<g clip-path="url(#clip0_304_1799)">
<path d="M44.2322 69.7423C21.319 69.7423 2.74414 51.1674 2.74414 28.2542C25.6574 28.2542 44.2322 46.8291 44.2322 69.7423Z" fill="#4DB1B1"/>
<path d="M44 33C25.7746 33 11 18.2254 11 0C29.2254 -7.96657e-07 44 14.7746 44 33Z" fill="#4DB1B1"/>
<path d="M43.2561 69.7423C66.1693 69.7423 84.7441 51.1674 84.7441 28.2542C61.8309 28.2542 43.2561 46.8291 43.2561 69.7423Z" fill="#4DB1B1"/>
<path d="M43 33C61.2254 33 76 18.2254 76 0C57.7746 -7.96657e-07 43 14.7746 43 33Z" fill="#4DB1B1"/>
<path d="M0 70C1.02018e-06 81.6695 4.6357 92.8611 12.8873 101.113C21.1389 109.364 32.3305 114 44 114C55.6695 114 66.8611 109.364 75.1127 101.113C83.3643 92.8611 88 81.6695 88 70H44H0Z" fill="#96D2F5"/>
</g>
<defs>
<clipPath id="clip0_304_1799">
<rect width="88" height="114" fill="white"/>
</clipPath>
</defs>
</svg>
